<svg fill="none" xmlns="http://www.w3.org/2000/svg" viewBox="0 0 24 24"><path d="M2 6a4 4 0 014-4h12a4 4 0 014 4v12a4 4 0 01-4 4H6a4 4 0 01-4-4V6z" fill="#2F3037"/><path d="M8.4 6H6v2.4h2.4V6z" fill="#004F7F"/><path d="M13.2 6h-2.4v2.4h2.4V6z" fill="#FAA61A"/><path d="M18 6h-2.4v2.4H18V6z" fill="#8E181B"/><path fill-rule="evenodd" clip-rule="evenodd" d="M8.4 6h2.4v2.4H8.4V6zm0 2.4v2.4H6V8.4h2.4z" fill="#0084C3"/><path d="M10.8 8.4H8.4v2.4h2.4V8.4z" fill="#68C3EE"/><path d="M13.2 8.4h-2.4v2.4h2.4V8.4z" fill="#F58020"/><path fill-rule="evenodd" clip-rule="evenodd" d="M13.2 6h2.4v2.4h-2.4V6zm2.4 2.4v2.4H18V8.4h-2.4z" fill="#C3262D"/><path d="M8.4 10.8H6v2.4h2.4v-2.4z" fill="#76CCCD"/><path d="M10.8 10.8H8.4v2.4h2.4v-2.4z" fill="#00B3C2"/><path d="M15.6 10.8h-2.4v2.4h2.4v-2.4z" fill="#DF9D88"/><path fill-rule="evenodd" clip-rule="evenodd" d="M13.2 8.4h2.4v2.4h-2.4V8.4zm2.4 2.4H18v2.4h-2.4v-2.4z" fill="#ED1C24"/><path fill-rule="evenodd" clip-rule="evenodd" d="M10.8 10.8h2.4v2.4h-2.4v-2.4zm2.4 2.4h2.4v2.4h-2.4v-2.4z" fill="#E2C197"/><path d="M8.4 15.6H6V18h2.4v-2.4z" fill="#00AA4F"/><path fill-rule="evenodd" clip-rule="evenodd" d="M6 13.2h2.4v2.4H6v-2.4zm2.4 2.4h2.4V18H8.4v-2.4z" fill="#75C043"/><path fill-rule="evenodd" clip-rule="evenodd" d="M8.4 13.2h2.4v2.4H8.4v-2.4zm2.4 2.4h2.4V18h-2.4v-2.4z" fill="#C4D92D"/><path fill-rule="evenodd" clip-rule="evenodd" d="M15.6 13.2H18v2.4h-2.4v-2.4zm0 2.4V18h-2.4v-2.4h2.4z" fill="#D7A96F"/><path fill-rule="evenodd" clip-rule="evenodd" d="M10.8 13.2h2.4v2.4h-2.4v-2.4zm4.8 2.4H18V18h-2.4v-2.4z" fill="#EEE1C5"/></svg>