<svg viewBox="0 0 24 24" fill="none" xmlns="http://www.w3.org/2000/svg"><path d="M2 6a4 4 0 014-4h12a4 4 0 014 4v12a4 4 0 01-4 4H6a4 4 0 01-4-4V6z" fill="#0A48B6"/><path fill-rule="evenodd" clip-rule="evenodd" d="M14.468 9c.501 0 .906.112 1.162.213l-.176 1.083-.117-.053a2.202 2.202 0 00-.966-.192c-.511 0-.741.218-.746.431 0 .235.277.39.73.62.747.357 1.094.794 1.089 1.364-.01 1.04-.896 1.712-2.256 1.712-.582-.005-1.142-.128-1.446-.267l.182-1.125.17.08c.422.187.699.267 1.216.267.373 0 .774-.155.779-.49 0-.22-.17-.38-.672-.625-.49-.24-1.147-.64-1.136-1.36.005-.975.907-1.658 2.187-1.658zm-4.831 5.104h1.296l.81-5.013h-1.296l-.81 5.013zm7.718-1.776l.517-1.403.04-.112c.038-.104.093-.257.13-.368l.091.432s.246 1.2.3 1.45h-1.078zm1.6-3.237h-1.003c-.309 0-.544.09-.677.416l-1.925 4.596h1.36l.272-.752h1.664l.154.752H20l-1.045-5.012zm-11.67 3.418l1.268-3.418h1.371l-2.037 5.007h-1.37L5.353 9.715c.82.432 1.557 1.3 1.791 2.1l.14.694z" fill="#F6F6F6"/><path d="M6.107 9.09H4.02L4 9.193c1.627.416 2.704 1.419 3.147 2.624l-.454-2.304c-.074-.32-.304-.41-.586-.421z" fill="#FAA61A"/></svg>
