<svg fill="none" xmlns="http://www.w3.org/2000/svg" viewBox="0 0 24 24"><path d="M2 6a4 4 0 014-4h12a4 4 0 014 4v12a4 4 0 01-4 4H6a4 4 0 01-4-4V6z" fill="#F6F6F6"/><path d="M18.956 10.157v.342a1.987 1.987 0 00-1.238-.412c-1.152 0-2.054.967-2.054 2.203 0 .552.19 1.077.534 1.48.382.448.972.715 1.58.715.436 0 .852-.14 1.178-.413v.37c0 .052.045.124.096.124h.876c.052 0 .072-.072.072-.125v-4.284c0-.052-.02-.113-.072-.113h-.907c-.052 0-.065.061-.065.113zm.056 2.133c0 .573-.437 1.138-1.106 1.138-.64 0-1.105-.492-1.105-1.138 0-.716.53-1.142 1.092-1.142.697 0 1.119.57 1.119 1.142zM6.79 13.464c-.254 0-.436-.079-.558-.232-.092-.115-.135-.269-.135-.522v-1.623h1.172a.09.09 0 00.09-.091v-.866a.087.087 0 00-.09-.087H6.097v-.949A.094.094 0 006.003 9h-.867a.094.094 0 00-.094.094v.95h-.94c-.052 0-.102.038-.102.09v.857c0 .053.05.096.103.096h.94v1.52c0 .595.093.973.311 1.264.297.4.799.61 1.451.61.503 0 .741-.12.914-.256.05-.04.06-.13.031-.172a81.993 81.993 0 01-.411-.653c-.036-.057-.11-.07-.173-.036a.9.9 0 01-.376.1z" fill="#204E77"/><path d="M9.51 10.084c-.584 0-1.11.235-1.485.661-.356.407-.552.955-.552 1.543 0 1.292.901 2.195 2.192 2.195.568 0 1.126-.209 1.52-.556l.06-.057a.095.095 0 00.009-.124l-.45-.598a.093.093 0 00-.14-.012 1.532 1.532 0 01-.088.08 1.402 1.402 0 01-.885.335c-.593 0-1.05-.497-1.114-1.072h2.768a.13.13 0 00.133-.116 2.18 2.18 0 00.01-.21c0-.579-.197-1.027-.555-1.43a1.881 1.881 0 00-1.423-.639zm0 .931c.357 0 .766.326.813.768H8.63c.054-.346.402-.768.881-.768z" fill="#204E77"/><path d="M13.739 12.796v.604l.905-1.157V10.83l-.305.376a2.348 2.348 0 00-.445.787c-.097.28-.155.556-.155.802zm-.349 0v.604l-.867-1.12v-1.41l.268.338c.176.197.335.468.445.787.097.28.155.556.155.802z" fill="#269E75"/><path d="M15.177 10.151l-.533.677v1.411l.834-1.08v-.893a.177.177 0 00-.112-.169.164.164 0 00-.19.054zm-3.223 0l.57.718-.001 1.412-.867-1.123-.004-.891a.178.178 0 01.113-.17.164.164 0 01.189.054z" fill="#9FD142"/><path d="M11.659 11.67l-.003-.512.867 1.123V13.7l-.348-.44a2.453 2.453 0 01-.374-.716 2.453 2.453 0 01-.142-.873zm3.819 0v-.512l-.833 1.088v1.42l.31-.406c.15-.19.278-.436.375-.716.106-.307.157-.61.148-.873z" fill="#35786E"/><path d="M14.645 13.659v-1.42l-.906 1.161v.9a.179.179 0 00.113.169.164.164 0 00.19-.054l.603-.756zm-2.122.041v-1.42l.868 1.12v.899a.179.179 0 01-.113.169.164.164 0 01-.19-.054l-.565-.715z" fill="#204E77"/></svg>