<svg viewBox="0 0 24 24" fill="none" xmlns="http://www.w3.org/2000/svg"><path d="M2 6a4 4 0 014-4h12a4 4 0 014 4v12a4 4 0 01-4 4H6a4 4 0 01-4-4V6z" fill="#FB4B4E"/><path d="M16.82 12.513c-.522.299-1.065.492-1.72.425-.182.206-.36.418-.523.637.921.235 1.897-.289 2.441-.786.577-.503.871-1.136.871-1.136s-.43.496-1.068.86zM9.161 15.523a.425.425 0 00-.411-.238c-.573.053-1.132.525-1.425 1.204-.155.35-.24.637-.294 1.096.178-.206.54-.545.952-.73 0 0 .056-.44.342-.831.108-.162.324-.423.567-.353.212.071.137.662-.144 1.234-.21.421-.528.842-.852 1.131-.286.244-.709.538-1.079.312-.233-.14-.352-.429-.327-.803.111-1.063.592-1.967 1.28-2.997.71-.956 1.492-1.94 2.545-2.463.215-.11.413-.135.586-.068 0 0-.989.547-1.46 1.559-.12.256-.286.603-.118.91.088.16.243.172.369.164.577-.134.95-.677 1.256-1.173.177-.376.334-.75.334-1.167 0-.05-.003-.117-.007-.168.275-.147.842.114.842.114.442.147 1.384.872 1.702 1.011.155-.18.41-.454.553-.59l-.208-.129a26.313 26.313 0 00-1.03-.588c-.785-.432-1.424-.28-1.75-.163l-.244.087c-.241-.266-.638-.24-.93-.168a3.798 3.798 0 00-.337.115c-.83.177-1.312.171-1.883-.227-.334-.296-.454-.773-.365-1.46.207-1.121.768-2.2 1.763-3.397.555-.623 1.07-1.157 1.75-1.371.522-.135.474.277.41.336a.5.5 0 00-.265.068c-.07.055-.263.231-.274.47-.014.362.36.288.522.088.173-.226.43-.657.228-1.058a.597.597 0 00-.413-.276c-.621-.036-1.2.262-1.737.592-1.17.819-2.107 1.952-2.636 3.193-.307.749-.583 1.821-.168 2.695.32.605.985.927 1.78.86.134-.014.275-.036.417-.061-.614.4-1.224.978-1.858 1.756-.768 1.003-1.243 1.87-1.497 2.725-.196.576-.255 1.424.223 1.927.405.426.944.334 1.324.18.824-.408 1.564-1.287 1.933-2.299.088-.3.188-.725.034-1.05zm1.894-3.17c-.108 1.258-1.081 1.996-1.321 2.056-.146.03-.394-.036-.173-.563.327-.71.885-1.314 1.484-1.623a.31.31 0 01.01.13z" fill="#F6F6F6"/><path d="M15.438 17.276l1.069-1.906h-.732l-.11.19a1.027 1.027 0 00-.177-.21c-.178-.114-.44-.06-.621.043-.787.463-1.362 1.377-1.814 2.09 0 0-.477.792-.742.851-.207.018-.185-.263-.176-.328.08-.471.265-.92.453-1.326.38-.265.813-.611 1.208-.993.854-.821 1.576-1.754 1.682-1.962 0 0-.114.023-.25.028-.658.924-2.005 2.265-2.413 2.465.18-.438 1.35-2.525 2.344-3.524l.157-.151c.242-.238.492-.482.688-.522.02-.003.047 0 .07.048.009.185-.06.322-.139.477l-.11.228s.156-.03.259-.064c.119-.225.25-.477.202-.778a.223.223 0 00-.177-.187c-.297-.056-.62.164-.88.342l-.01.006c-1.338 1.054-2.467 2.573-3.454 4.646-.072.054-.348.12-.396.089.097-.203.22-.474.281-.768.012-.083.022-.17.022-.254 0-.18-.043-.352-.205-.47-.188-.093-.423-.05-.58.021-.705.295-1.233 1.022-1.614 1.622-.205.38-.41.789-.465 1.256-.04.365.04.6.248.72.212.108.48-.005.585-.06.715-.378 1.215-1.137 1.608-1.832.016-.002.231-.008.393-.05.003 0 .004 0 .007.002-.009.031-.094.284-.094.284-.249.736-.364 1.237-.129 1.533.337.419.895-.015 1.349-.586-.097.685.256.793.526.74.31-.084.653-.416.813-.586-.05.2-.037.558.245.593.193.036.337-.07.504-.16.599-.327 1.317-1.421 1.503-1.737h-.244c-.266.402-.602.93-1.026 1.18-.074.05-.177.011-.138-.104.096-.296.48-.896.48-.896zm-5.72.925a.332.332 0 01-.05-.186c-.008-.413.434-1.15.744-1.553h.002c.13.288.426.473.604.55-.223.497-.983 1.56-1.3 1.19zm1.424-1.41c-.02.015-.395-.112-.467-.459-.06-.299.144-.532.342-.65a.335.335 0 01.306-.056c.087.06.111.165.111.279 0 .069-.009.141-.017.205l-.002.015a2.832 2.832 0 01-.273.666zm2.989 1.278l-.071.063c-.101.091-.204.188-.33.14-.034-.013-.058-.06-.065-.095-.005-.258.11-.499.223-.732l.029-.061c.323-.543.698-1.182 1.25-1.625.093-.068.194-.125.3-.08.025.022.053.062.053.103a.19.19 0 01-.017.056c-.154.25-.3.513-.443.766-.28.497-.568 1.013-.93 1.465zM17.814 6.91l-.386.633h.686l.386-.633h-.686zM11.741 6.887c-.433-.286-1.304.261-2.002 1.2-.638.84-.914 1.819-.614 2.27.446.533 1.274-.24 1.626-.656l.046-.048c.24-.259.424-.57.604-.869l.172-.286c.102-.019.224-.048.362-.089-.002.006-.528.896-.474 1.338.017.135.004.627.481.776.637.107 1.146-.388 1.594-.83l.12-.117a5.001 5.001 0 00-.026.102c-.186.652.066.789.222.84.476.138 1.043-.556 1.045-.556-.015.219-.058.4.171.545.216.078.436-.041.601-.152.6-.425 1.083-1.09 1.473-1.664h-.25c-.003 0-.613.89-1.01 1.084-.001 0-.073.037-.114.008-.052-.044-.031-.136.001-.201L17.3 6.909h-.722l-.085.137c-.005-.005-.017-.026-.025-.037-.446-.623-1.46.335-2.224 1.445-.293.427-.667.908-1.055 1.255 0 0-.575.53-.82.15-.09-.16-.06-.393-.01-.547.285-.819.778-1.561 1.338-2.008.158-.125.33-.16.415-.107.08.048.095.167.043.25a.4.4 0 00-.32.124c-.167.177-.225.348-.173.507.259.37.775-.362.75-.808a.48.48 0 00-.22-.385c-.189-.114-.477-.084-.663.007-.25.094-.644.425-.875.682-.29.322-.787.679-.943.639.052-.138.473-1.001.03-1.326zm3.482 1.279c.14-.196.55-.72.649-.808.335-.297.47-.167.481-.074-.313.563-.682 1.21-1.03 1.79l-.108.166c-.153.236-.308.438-.56.579-.036.01-.095.014-.135-.015a.143.143 0 01-.06-.14c.015-.18.198-.733.763-1.498zm-3.929.339l-.009.025-.315.515c-.19.254-.427.575-.723.728-.088.03-.209.048-.27-.03-.132-.158-.065-.377-.01-.553l.02-.063c.158-.43.407-.809.649-1.16a.034.034 0 01.013-.004l.002.006c.152.294.438.431.651.494.001 0 .003.003.003.006 0 .008-.003.016-.01.036zm.297-.608c0 .004-.139.324-.139.324-.02.017-.051.008-.088 0l-.062-.01c-.195-.061-.343-.191-.387-.348-.063-.302.194-.54.307-.626.109-.076.278-.116.376-.038.06.071.084.164.084.265 0 .136-.043.29-.09.433z" fill="#F6F6F6"/></svg>
