<svg viewBox="0 0 24 24" fill="none" xmlns="http://www.w3.org/2000/svg"><path d="M2 6a4 4 0 014-4h12a4 4 0 014 4v12a4 4 0 01-4 4H6a4 4 0 01-4-4V6z" fill="#fff"/><path d="M2 6a4 4 0 014-4h12a4 4 0 014 4v12a4 4 0 01-4 4H6a4 4 0 01-4-4V6z" fill="#1B55A4"/><path fill-rule="evenodd" clip-rule="evenodd" d="M6.546 8l1.97 6.252.005.032.006-.032L10.495 8h1.548v7.785h-.93v-7.12l-.02.026-2.21 7.094H8.16L5.95 8.691l-.02-.026v7.12H5V8h1.546zm8.303 1.078c-.25.207-.378.507-.382.888-.01.816.94 1.13 1.944 1.462h.002l.007.003c.617.204 1.255.416 1.745.754.561.388.835.886.835 1.523 0 .443-.103 1.077-.597 1.573-.475.477-1.2.719-2.158.719-.807 0-1.452-.217-1.971-.667-.473-.407-.798-1.016-.988-1.435l.884-.23c.406 1.033 1.127 1.57 2.12 1.57.566 0 1.005-.133 1.303-.394.27-.239.413-.58.413-.986 0-.912-.983-1.25-2.024-1.608l-.006-.002c-.6-.204-1.22-.416-1.691-.748-.534-.376-.794-.857-.794-1.469 0-.555.242-1.066.678-1.439.45-.381 1.083-.592 1.783-.592 1.415 0 2.347.763 2.726 2.014l-.867.102a1.772 1.772 0 00-.628-.963c-.332-.256-.765-.391-1.253-.391-.465 0-.828.106-1.081.316z" fill="#fff"/></svg>
