<svg fill="none" xmlns="http://www.w3.org/2000/svg" viewBox="0 0 24 24"><path d="M2 6a4 4 0 014-4h12a4 4 0 014 4v12a4 4 0 01-4 4H6a4 4 0 01-4-4V6z" fill="#B2955A"/><path d="M2.18 13.66c-.05.014-.098.028-.18.028.072-.186.403-.436.683-.648.084-.063.163-.123.23-.176.573-.44.677-.367.977-.16.108.075.24.168.43.26.693.34 2.751.788 3.227-.059.217-.543-.635-.771-1.125-.855a13.68 13.68 0 00-1.043-.104c-.8-.061-1.717-.131-2.135-.352-.577-.3-.601-1.03-.169-1.52 1.234-1.395 5.45-1.396 5.768-.208-.116.15-.896.533-1.156.64-.164.07-.284.081-.45 0 .053-.029.106-.08.158-.13.025-.024.05-.048.074-.069-.043-1.137-4.263-.822-3.664.2.252.421 1.26.515 1.92.577l.258.025c.137.017.272.03.406.043.541.052 1.048.1 1.482.354.786.456.772 1.3.23 1.748-.527.424-.715.525-1.473.649a7.866 7.866 0 01-1.72.072c-.71-.044-1.176-.131-1.933-.273l-.084-.016c-.489-.09-.604-.057-.711-.026z" fill="#fff"/><path fill-rule="evenodd" clip-rule="evenodd" d="M10.238 10.045c-.273.06-.417.091-.662-.015l.282-.117c2.121-.74 8.036-1.615 9.105.203.743 1.278-.282 4.018-1.725 3.877-1.364-.132-1.624-2.912 1.076-2.78-.08-.838-.874-1.213-1.603-1.38-1.45-.323-3.412-.16-4.891-.019-.388.041-.776.09-1.162.15-.173.026-.307.056-.42.08zm7.953 3.176c.173-.116.151-1.03.05-1.238-.123-.216-.814-.357-.98-.216-.166.133-.24.98-.088 1.172.086.107.851.399 1.018.282z" fill="#fff"/><path fill-rule="evenodd" clip-rule="evenodd" d="M10.797 11.147c.215.062.465.136.97.007.003.326-.001.611-.005.856-.016 1.052-.02 1.34.612.895.014.574-.686 1.045-.888 1.078-.584.1-.568-.559-.554-1.12a9.75 9.75 0 00.004-.24c-.094.058-.468.482-.561.59-1.895 2.24-2.193-.954-.484-1.935.467-.26.664-.202.906-.131zm-.083.513c-1.162-.606-1.282 1.267-1.004 1.395.303.14.617-.226.816-.456l.036-.042c.202-.241.57-.681.152-.897z" fill="#fff"/><path d="M12.568 11.818c-.086-.067-.245.017-.26.05l-.014-.283c.063-.038.136-.09.215-.146.248-.178.558-.4.81-.369.316.294.256 1.248.256 1.248l.123-.133c.303-.331.61-.666 1.093-.915.774-.397.76.157.74.915-.008.288-.016.606.018.912.176.026.258-.05.356-.141.026-.025.054-.05.084-.076 0 .305-.058.374-.169.506l-.062.076a2.15 2.15 0 01-.39.401c-.754.47-.742-.436-.734-1.146.005-.353.008-.657-.083-.72-.296-.208-1.138 1.216-1.318 1.531a2.88 2.88 0 00-.071.14c-.102.21-.179.367-.5.325-.004-.104 0-.296.003-.524.01-.64.026-1.565-.097-1.651zm8.271-.44c-.346-.042-.86.296-.634.551.197.184.45.246.735.316.164.04.338.083.517.152.715.29.664.78.195 1.254-.325.332-.741.345-1.297.345-.27 0-.505-.058-.752-.119l-.07-.017c-.2-.048-.276-.005-.362.045a.57.57 0 01-.332.09c.095-.224.324-.454.476-.604l.071-.072c.197-.2.218-.222.537-.065l.128.067c.401.211.92.485 1.222-.03.104-.287-.33-.389-.81-.502-.666-.157-1.42-.336-.959-1.054.577-.905 2.197-.723 2.493-.2-.087.116-.483.243-.613.251a.265.265 0 01-.06-.137c-.025-.111-.049-.219-.485-.27zM2 16c4.697-1.69 14.177-1.74 20 0-7.803-1.14-13.644-1.142-20 0z" fill="#fff"/></svg>