<svg viewBox="0 0 24 24" fill="none" xmlns="http://www.w3.org/2000/svg"><path d="M2 6a4 4 0 014-4h12a4 4 0 014 4v12a4 4 0 01-4 4H6a4 4 0 01-4-4V6z" fill="#FB4B4E"/><path d="M16.623 8.2l-1.149 5.032-1.152-5.033h-3.328v1.859C10.589 8.432 9.106 8.024 7.78 8c-1.616-.023-3.407.73-3.469 3.032h2.235c0-.695.591-1.093 1.15-1.082.684-.007 1 .308 1.015.798-.024.425-.257.721-1.01.721h-.752v1.67h.682c.388 0 .928.228.949.822.026.709-.432 1.02-.995 1.026-1.005-.04-1.265-.872-1.265-1.587H4c.01.482-.005 3.622 3.632 3.599 1.742.017 3.01-.772 3.368-1.859v1.666h2.238v-5.429l1.237 5.43h2l1.242-5.424v5.428H20V8.2h-3.377zm-5.622 5.02c-.285-.635-.686-.912-.912-1 .474-.227.722-.535.912-1.148v2.148z" fill="#fff"/></svg>
