<svg viewBox="0 0 24 24" fill="none" xmlns="http://www.w3.org/2000/svg"><path d="M2 6a4 4 0 014-4h12a4 4 0 014 4v12a4 4 0 01-4 4H6a4 4 0 01-4-4V6z" fill="#41ABE1"/><path fill-rule="evenodd" clip-rule="evenodd" d="M18 8.185c-.442.2-.917.336-1.414.396a2.515 2.515 0 001.081-1.397c-.476.29-1.003.5-1.563.613A2.431 2.431 0 0014.307 7c-1.36 0-2.462 1.131-2.462 2.525 0 .199.022.391.065.575-2.047-.105-3.86-1.111-5.074-2.639a2.568 2.568 0 00-.333 1.269c0 .876.435 1.65 1.096 2.101a2.41 2.41 0 01-1.116-.316v.031c0 1.224.849 2.245 1.975 2.476a2.432 2.432 0 01-1.112.042c.314 1.003 1.223 1.734 2.299 1.754A4.86 4.86 0 016 15.865 6.84 6.84 0 009.774 17c4.527 0 7.003-3.848 7.003-7.185 0-.11-.002-.218-.007-.326.482-.357.899-.801 1.228-1.308l.002.004z" fill="#fff"/></svg>
