<svg viewBox="0 0 24 24" fill="none" xmlns="http://www.w3.org/2000/svg"><path d="M2 6a4 4 0 014-4h12a4 4 0 014 4v12a4 4 0 01-4 4H6a4 4 0 01-4-4V6z" fill="#F6F6F6"/><path d="M14.285 11.271l-.034.09c.561.255 1.82 1.265 1.82 3.3 0 1.915-1.564 3.845-4.024 3.845-3.06 0-4.115-1.846-4.115-3.542 0-2.173 1.473-3.62 1.473-5.6-.017-1.441-.996-2.68-2.362-2.987l-.05.09c.485.486.757 1.158.754 1.855C7.747 10.461 6 11.98 6 14.434c0 2.26 1.531 4.564 5.966 4.564 3.951 0 6.035-1.997 6.035-4.12-.003-1.824-1.268-3.367-3.716-3.607z" fill="#E74A21"/><path d="M12.018 15.936L13.14 5h-2.328l1.122 10.936h.085z" fill="#0460A9"/><path d="M14.285 11.271l-.034.09c.561.255 1.82 1.265 1.82 3.3 0 1.915-1.565 3.845-4.024 3.845-.026 0-.045-.003-.07-.003v.495c3.943-.003 6.024-2 6.024-4.12-.003-1.824-1.268-3.367-3.716-3.607z" fill="#EC9A1E"/></svg>
