<svg viewBox="0 0 24 24" fill="none" xmlns="http://www.w3.org/2000/svg"><path d="M2 6a4 4 0 014-4h12a4 4 0 014 4v12a4 4 0 01-4 4H6a4 4 0 01-4-4V6z" fill="#2F3037"/><path d="M5.875 14.998c-.506-.02-.92-.158-1.245-.413a2.474 2.474 0 01-.258-.256 1.595 1.595 0 01-.28-.5c-.184-.543-.09-1.257.27-2.04.306-.67.78-1.336 1.608-2.257.122-.136.485-.532.487-.532l-.044.075c-.215.357-.399.777-.5 1.141-.16.584-.14 1.085.058 1.474.137.267.371.499.635.627.463.224 1.14.243 1.966.054.057-.013 2.876-.754 6.265-1.647L21 9.102c.001 0-7.874 3.338-11.962 5.069-.647.274-.82.343-1.125.45-.778.27-1.474.399-2.038.377z" fill="#fff"/></svg>
