<svg fill="none" xmlns="http://www.w3.org/2000/svg" viewBox="0 0 24 24"><path d="M2 6a4 4 0 014-4h12a4 4 0 014 4v12a4 4 0 01-4 4H6a4 4 0 01-4-4V6z" fill="#2F3037"/><path fill-rule="evenodd" clip-rule="evenodd" d="M11.982 15.126L9.37 6 6 18h.635s.425-2.342 1.112-3.564c.383-.648.966-1.178 1.747-1.158.544.009 1.012.3 1.606 1.176.362.528.9 1.866.9 1.866s.537-1.338.9-1.866c.583-.877 1.07-1.167 1.624-1.176.777-.02 1.352.51 1.729 1.158.689 1.222 1.112 3.564 1.112 3.564H18L14.63 6l-2.612 9.126-.018.018-.018-.018z" fill="#fff"/></svg>