<svg viewBox="0 0 24 24" fill="none" xmlns="http://www.w3.org/2000/svg"><path d="M2 6a4 4 0 014-4h12a4 4 0 014 4v12a4 4 0 01-4 4H6a4 4 0 01-4-4V6z" fill="#2F3037"/><path fill-rule="evenodd" clip-rule="evenodd" d="M13.148 5.01l-.005 3.094-.006 3.094-.264-.718v-.002l-.342 6.888c.336.913.515 1.401.517 1.403.003.003.194.014.425.025.7.033 1.567.105 2.225.184.153.018.284.027.292.02.008-.006.012-3.157.01-7l-.005-6.988h-2.847zM8 5v6.995c0 3.848.004 7 .009 7.004.004.004.252-.018.549-.05.297-.032.708-.072.913-.089a50.038 50.038 0 011.36-.084c.032 0 .035-.158.039-2.963l.005-2.963.227.62.08.218.341-6.886-.117-.32c-.279-.76-.515-1.404-.526-1.431L10.862 5H8z" fill="#DC0509"/><path fill-rule="evenodd" clip-rule="evenodd" d="M8 5l2.875 7.854v-.004l.227.62c1.263 3.446 1.942 5.294 1.946 5.298.003.003.194.014.425.025.7.033 1.567.105 2.225.184.152.018.282.027.291.02l-2.852-7.801v.001l-.264-.718A6680.362 6680.362 0 0110.88 5.05L10.861 5H8z" fill="#FB4B4E"/></svg>
