<svg fill="none" xmlns="http://www.w3.org/2000/svg" viewBox="0 0 24 24"><path d="M2 6a4 4 0 014-4h12a4 4 0 014 4v12a4 4 0 01-4 4H6a4 4 0 01-4-4V6z" fill="#1B55A4"/><path fill-rule="evenodd" clip-rule="evenodd" d="M11.747 5c-2.357 0-5.12 1.69-5.12 3.218 0 .554.46 1.023 1.415 1.097a7.747 7.747 0 00-.196 1.76v.08c-1.346-.019-2.174-.678-2.174-1.649 0-.302.061-.503.081-.563h-.061l-.007.014c-.072.141-.318.628-.318 1.132 0 .93.884 1.786 2.515 1.882.06.73.193 1.42.388 2.06h-.038c-2.256 0-3.089-1.045-3.19-1.629H5c-.04 1.103 1.07 2.322 3.539 2.391a7.766 7.766 0 001.09 1.89 6.475 6.475 0 01-.24.004c-1.402 0-2.621-.403-3.23-.925l-.041.02c.244.422 1.402 1.488 3.616 1.488.135 0 .271-.003.407-.008a5.643 5.643 0 002.052 1.335 8.55 8.55 0 01-2.662-.12l-.02.06.03.012c.297.114 1.176.451 2.51.451 3.108 0 5.2-1.911 6.054-3.36l-.061-.06a7.065 7.065 0 01-1.117 1.067 13.112 13.112 0 00-.407-1.654c.66-.498 1.224-1.059 1.645-1.664.124.585.174 1.172.143 1.749l.061.02c.101-.302.163-.704.163-1.388a5.07 5.07 0 00-.074-.85c.346-.623.541-1.285.541-1.966 0-.46-.1-.761-.121-.824v-.001l-.062.02c.008.708-.189 1.383-.538 2.014a7.511 7.511 0 00-.814-1.768c.294-.544.458-1.108.458-1.674 0-.926-.569-1.388-.67-1.468l-.061.04c.08.14.203.442.203.905 0 .489-.152.99-.427 1.483a8.88 8.88 0 00-1.459-1.486c.181-.372.28-.75.28-1.123 0-1.066-1.015-1.65-1.726-1.77l-.02.04c.223.06 1.036.443 1.036 1.388 0 .308-.094.632-.265.961a8.141 8.141 0 00-1.583-.803 1.59 1.59 0 00.182-.701c0-.745-.711-1.127-1.666-1.127zm6.225 7.592a8.635 8.635 0 00-.8-1.781c-.421.608-1.002 1.183-1.69 1.697.299.57.568 1.165.797 1.78.674-.505 1.257-1.075 1.693-1.696zm-2.086 1.976a20.412 20.412 0 00-.851-1.744 11.99 11.99 0 01-2.662 1.314c.317.604.65 1.188.993 1.735a12.58 12.58 0 002.52-1.305zm-2.963 1.467a18.66 18.66 0 01-1.059-1.73c-.913.276-1.861.447-2.79.484a8.43 8.43 0 001.129 1.858c.87-.084 1.801-.294 2.72-.612zm-2.203 1.186a11.796 11.796 0 002.643-.581c.387.503.791.96 1.208 1.354a8.336 8.336 0 01-1.91.523c-.712-.277-1.366-.724-1.94-1.296zm3.051-.729c.86-.328 1.675-.75 2.393-1.242.199.519.374 1.046.52 1.578a8.617 8.617 0 01-1.85 1.045c-.36-.407-.716-.872-1.063-1.38zm-5.003-2.476c.9-.052 1.81-.231 2.687-.507a21.616 21.616 0 01-.818-1.9 8.87 8.87 0 01-2.327.37c.078.7.234 1.386.458 2.037zm3.2-.68a12.294 12.294 0 002.608-1.31 22.63 22.63 0 00-1.145-1.713c-.686.459-1.476.851-2.307 1.14.26.63.542 1.262.844 1.882zm4.716-3.268c-.409.575-.976 1.132-1.652 1.637a16.667 16.667 0 00-1.166-1.702c.591-.45 1.08-.951 1.418-1.471a9.46 9.46 0 011.4 1.536zM14.6 7.986a8.852 8.852 0 00-1.525-.89c-.23.347-.57.688-.987.995.401.356.806.764 1.203 1.217.548-.415.998-.868 1.31-1.322zm-1.718 1.611c-.367-.459-.742-.89-1.117-1.286-.45.286-.97.532-1.532.71.166.52.356 1.063.566 1.613.76-.27 1.47-.629 2.083-1.037zm-2.534 1.185c-.185-.57-.338-1.13-.452-1.664-.485.126-.994.2-1.512.207a9.88 9.88 0 00-.13 1.823 8.693 8.693 0 002.094-.366zM9.012 7.245c-.1.22-.322.714-.501 1.456.416-.001.848-.07 1.27-.19a8.978 8.978 0 01-.127-1.379l.06-.02c.09.412.204.853.338 1.316.447-.15.875-.353 1.251-.588-.365-.36-.728-.684-1.08-.97l.06-.04c.408.2.843.48 1.289.83.357-.256.65-.54.846-.83a8.143 8.143 0 00-1.81-.422v-.06c.674 0 1.323.092 1.94.26.086-.176.133-.351.133-.522 0-.281-.223-.865-1.381-.865-1.788 0-4.104 1.428-4.104 2.615 0 .481.35.789 1.022.853a5.85 5.85 0 01.743-1.504l.023-.033.06.02-.032.073z" fill="#fff"/></svg>