<svg viewBox="0 0 24 24" fill="none" xmlns="http://www.w3.org/2000/svg"><path d="M2 6a4 4 0 014-4h12a4 4 0 014 4v12a4 4 0 01-4 4H6a4 4 0 01-4-4V6z" fill="#FB4B4E"/><path fill-rule="evenodd" clip-rule="evenodd" d="M18.136 8.027A14.929 14.929 0 0012 6.791a14.927 14.927 0 00-6.136 1.236c-.258-.47-.364-.755-.364-.755A17.725 17.725 0 0112 6c1.91.008 4.13.33 6.5 1.272 0 0-.075.231-.364.755zm-4.316.7L12.002 19 10.168 8.726c-1.722.001-2.268.192-2.347.972 0 0-1.163-.436-1.75-1.32C8.36 7.313 10.66 7.265 10.66 7.265L12 8.905 12 8.905h.003L12 8.904l1.34-1.64s2.3.049 4.589 1.114c-.586.884-1.75 1.32-1.75 1.32-.078-.78-.625-.97-2.359-.97z" fill="#F6F6F6"/></svg>
