<?xml version="1.0" standalone="no"?>
<!DOCTYPE svg PUBLIC "-//W3C//DTD SVG 20010904//EN"
 "http://www.w3.org/TR/2001/REC-SVG-20010904/DTD/svg10.dtd">
<svg version="1.0" xmlns="http://www.w3.org/2000/svg"
 width="300.000000pt" height="328.000000pt" viewBox="0 0 300.000000 328.000000"
 preserveAspectRatio="xMidYMid meet">
<metadata>
Created by potrace 1.10, written by Peter Selinger 2001-2011
</metadata>
<g transform="translate(0.000000,328.000000) scale(0.100000,-0.100000)"
fill="#000000" stroke="none">
<path d="M750 3111 c-37 -12 -71 -30 -355 -194 -143 -83 -277 -164 -298 -180
-21 -16 -51 -53 -67 -81 l-30 -51 0 -425 0 -425 30 -51 c16 -28 46 -65 67 -81
43 -34 541 -324 618 -359 71 -34 189 -34 260 0 86 40 578 327 622 363 27 21
54 58 75 101 l33 67 0 385 0 385 -33 67 c-21 43 -48 80 -75 101 -44 36 -536
323 -622 363 -39 19 -66 24 -125 23 -41 0 -86 -4 -100 -8z m405 -352 c158 -90
294 -175 313 -194 l32 -35 0 -346 c0 -352 -2 -372 -39 -401 -53 -42 -576 -335
-605 -340 -33 -5 -61 9 -291 141 -140 81 -275 159 -299 173 -78 47 -76 37 -76
423 0 300 2 345 17 370 11 20 99 76 302 193 157 90 293 167 301 170 42 15 80
-2 345 -154z"/>
<path d="M1730 1486 c-54 -20 -401 -224 -433 -254 -16 -15 -41 -49 -55 -77
l-27 -50 0 -265 0 -265 29 -52 c16 -29 38 -61 50 -72 11 -11 110 -71 220 -135
224 -130 272 -147 359 -127 55 12 427 219 475 264 13 12 36 45 50 72 27 50 27
52 30 293 5 371 2 376 -297 548 -102 58 -202 112 -224 120 -49 17 -130 17
-177 0z m295 -271 c100 -58 191 -115 201 -126 17 -19 19 -42 22 -234 3 -176 0
-219 -12 -243 -11 -22 -61 -56 -188 -130 -203 -118 -219 -125 -254 -112 -14 6
-104 56 -201 112 -151 87 -177 106 -190 136 -11 28 -14 78 -11 243 3 195 4
210 24 229 33 34 377 229 403 230 13 0 106 -47 206 -105z"/>
<path d="M2976 850 c-28 -120 -28 -317 -1 -420 l20 -75 3 148 c1 82 1 212 0
290 l-3 142 -19 -85z"/>
</g>
</svg>
