<?xml version="1.0" standalone="no"?>
<!DOCTYPE svg PUBLIC "-//W3C//DTD SVG 20010904//EN"
 "http://www.w3.org/TR/2001/REC-SVG-20010904/DTD/svg10.dtd">
<svg version="1.0" xmlns="http://www.w3.org/2000/svg"
 width="300.000000pt" height="206.000000pt" viewBox="0 0 300.000000 206.000000"
 preserveAspectRatio="xMidYMid meet">
<metadata>
Created by potrace 1.10, written by Peter Selinger 2001-2011
</metadata>
<g transform="translate(0.000000,206.000000) scale(0.100000,-0.100000)"
fill="#000000" stroke="none">
<path d="M0 1030 l0 -1030 1500 0 1500 0 0 1030 0 1030 -1500 0 -1500 0 0
-1030z m457 350 c3 -10 2 -11 -4 -3 -5 6 -29 14 -53 16 l-45 4 49 -1 c35 -1
51 -5 53 -16z m-100 -22 c-3 -8 -6 -5 -6 6 -1 11 2 17 5 13 3 -3 4 -12 1 -19z
m110 -25 c-4 -3 -7 0 -7 7 0 7 3 10 7 7 3 -4 3 -10 0 -14z m-120 -10 c-4 -3
-7 0 -7 7 0 7 3 10 7 7 3 -4 3 -10 0 -14z m130 -25 c-3 -8 -6 -5 -6 6 -1 11 2
17 5 13 3 -3 4 -12 1 -19z m10 -35 c-4 -3 -7 0 -7 7 0 7 3 10 7 7 3 -4 3 -10
0 -14z m-160 -10 c-4 -3 -7 0 -7 7 0 7 3 10 7 7 3 -4 3 -10 0 -14z m170 -25
c-3 -8 -6 -5 -6 6 -1 11 2 17 5 13 3 -3 4 -12 1 -19z m-180 -10 c-3 -8 -6 -5
-6 6 -1 11 2 17 5 13 3 -3 4 -12 1 -19z m190 -25 c-4 -3 -7 0 -7 7 0 7 3 10 7
7 3 -4 3 -10 0 -14z m-200 -15 c-3 -8 -6 -5 -6 6 -1 11 2 17 5 13 3 -3 4 -12
1 -19z m210 -5 c-4 -3 -10 -3 -14 0 -3 4 0 7 7 7 7 0 10 -3 7 -7z m-374 -40
c-7 -2 -21 -2 -30 0 -10 3 -4 5 12 5 17 0 24 -2 18 -5z m67 -18 c17 -9 30 -18
30 -21 0 -2 -12 2 -27 9 -16 8 -35 17 -43 20 -10 4 -11 6 -2 6 7 1 26 -6 42
-14z m538 -23 c2 -24 -2 -38 -15 -48 -17 -12 -17 -13 0 -14 19 0 21 -8 8 -28
-6 -10 -22 -8 -76 12 -37 15 -69 26 -71 26 -2 0 -4 -11 -4 -25 0 -15 -6 -25
-14 -25 -19 0 -22 10 -18 80 l4 61 91 -3 92 -3 3 -33z m217 -32 l0 -65 -90 0
-90 0 -3 54 c-5 82 -5 82 95 79 l88 -3 0 -65z m235 55 c0 -12 -16 -15 -85 -15
l-85 0 0 -40 0 -40 85 0 c69 0 85 -3 85 -15 0 -12 -17 -15 -93 -15 -59 0 -97
4 -105 12 -16 16 -16 100 0 116 8 8 46 12 105 12 76 0 93 -3 93 -15z m50 -10
c0 -14 2 -25 4 -25 2 0 34 11 70 25 37 14 72 23 77 20 21 -14 6 -33 -36 -45
-25 -7 -48 -16 -50 -20 -3 -4 16 -13 40 -20 48 -14 63 -26 48 -41 -6 -6 -37 0
-81 15 l-72 25 0 -25 c0 -17 -5 -24 -20 -24 -18 0 -20 7 -20 70 0 63 2 70 20
70 15 0 20 -7 20 -25z m380 10 c0 -12 -16 -15 -80 -15 -47 0 -80 -4 -80 -10 0
-6 33 -10 80 -10 73 0 80 -2 80 -20 0 -18 -7 -20 -80 -20 -47 0 -80 -4 -80
-10 0 -6 33 -10 80 -10 64 0 80 -3 80 -15 0 -12 -18 -15 -100 -15 l-100 0 0
70 0 70 100 0 c82 0 100 -3 100 -15z m230 0 c0 -11 -12 -15 -45 -15 l-45 0 0
-55 c0 -42 -3 -55 -15 -55 -12 0 -15 13 -15 55 l0 55 -40 0 c-29 0 -40 4 -40
15 0 12 18 15 100 15 82 0 100 -3 100 -15z m130 -40 l0 -55 80 0 c64 0 80 -3
80 -15 0 -12 -18 -15 -100 -15 l-100 0 0 70 c0 63 2 70 20 70 18 0 20 -7 20
-55z m378 -17 c2 -56 0 -68 -13 -68 -9 0 -15 9 -15 25 0 24 -2 25 -65 25 -63
0 -65 -1 -65 -25 0 -18 -5 -25 -20 -25 -18 0 -20 7 -20 54 0 88 -1 87 104 84
l91 -3 3 -67z m217 2 l0 -65 -97 -3 -98 -3 0 71 0 71 98 -3 97 -3 0 -65z m108
-73 l52 -3 -57 -2 -58 -2 2 78 2 77 3 -72 4 -72 52 -4z m114 116 c-4 -3 -10
-3 -14 0 -3 4 0 7 7 7 7 0 10 -3 7 -7z m50 -20 c-4 -3 -10 -3 -14 0 -3 4 0 7
7 7 7 0 10 -3 7 -7z m23 -38 c-7 -8 -17 -15 -23 -15 -6 0 -3 6 8 13 11 9 15
19 10 28 -6 11 -5 12 5 2 11 -10 11 -15 0 -28z m-965 6 c-3 -6 -11 -11 -16
-11 -5 0 -4 6 3 14 14 16 24 13 13 -3z m-1400 -1 c-4 -6 -50 -9 -113 -8 l-107
2 110 6 c61 3 111 7 113 8 2 1 0 -2 -3 -8z m2302 -37 c-4 -3 -10 -3 -14 0 -3
4 0 7 7 7 7 0 10 -3 7 -7z m-30 -10 c-4 -3 -10 -3 -14 0 -3 4 0 7 7 7 7 0 10
-3 7 -7z m-2278 -75 c-1 -17 -2 -19 -6 -5 -4 15 -17 17 -98 17 -81 0 -94 -2
-98 -17 -4 -14 -5 -12 -6 5 -1 21 1 22 104 22 103 0 105 -1 104 -22z m-192
-45 c-4 -3 -7 0 -7 7 0 7 3 10 7 7 3 -4 3 -10 0 -14z m180 0 c-4 -3 -7 0 -7 7
0 7 3 10 7 7 3 -4 3 -10 0 -14z m-10 -35 c-3 -8 -6 -5 -6 6 -1 11 2 17 5 13 3
-3 4 -12 1 -19z m-160 -5 c-4 -3 -7 0 -7 7 0 7 3 10 7 7 3 -4 3 -10 0 -14z
m10 -30 c-4 -3 -7 0 -7 7 0 7 3 10 7 7 3 -4 3 -10 0 -14z m140 -5 c-3 -8 -6
-5 -6 6 -1 11 2 17 5 13 3 -3 4 -12 1 -19z m-130 -35 c-4 -3 -7 0 -7 7 0 7 3
10 7 7 3 -4 3 -10 0 -14z m120 0 c-4 -3 -7 0 -7 7 0 7 3 10 7 7 3 -4 3 -10 0
-14z m-110 -30 c-4 -3 -7 0 -7 7 0 7 3 10 7 7 3 -4 3 -10 0 -14z m100 0 c-4
-3 -7 0 -7 7 0 7 3 10 7 7 3 -4 3 -10 0 -14z m-24 -20 c-13 -2 -35 -2 -50 0
-16 2 -5 4 22 4 28 0 40 -2 28 -4z"/>
<path d="M590 1090 c0 -6 28 -10 65 -10 37 0 65 4 65 10 0 6 -28 10 -65 10
-37 0 -65 -4 -65 -10z"/>
<path d="M810 1060 l0 -40 65 0 65 0 0 40 0 40 -65 0 -65 0 0 -40z"/>
<path d="M2210 1090 c0 -6 29 -10 66 -10 41 0 63 4 59 10 -3 6 -33 10 -66 10
-33 0 -59 -4 -59 -10z"/>
<path d="M2430 1090 c0 -6 29 -10 66 -10 41 0 63 4 59 10 -3 6 -33 10 -66 10
-33 0 -59 -4 -59 -10z"/>
<path d="M2430 1030 c0 -6 26 -10 59 -10 33 0 63 5 66 10 4 6 -18 10 -59 10
-37 0 -66 -4 -66 -10z"/>
</g>
</svg>
