<?xml version="1.0" standalone="no"?>
<!DOCTYPE svg PUBLIC "-//W3C//DTD SVG 20010904//EN"
 "http://www.w3.org/TR/2001/REC-SVG-20010904/DTD/svg10.dtd">
<svg version="1.0" xmlns="http://www.w3.org/2000/svg"
 width="900.000000pt" height="600.000000pt" viewBox="0 0 900.000000 600.000000"
 preserveAspectRatio="xMidYMid meet">
<metadata>
Created by potrace 1.10, written by Peter Selinger 2001-2011
</metadata>
<g transform="translate(0.000000,600.000000) scale(0.100000,-0.100000)"
fill="#000000" stroke="none">
<path d="M0 3000 l0 -3000 4500 0 4500 0 0 3000 0 3000 -4500 0 -4500 0 0
-3000z m6230 450 c3 -511 2 -778 -5 -782 -5 -5 -93 -7 -195 -5 l-185 2 -3 768
c-1 445 2 775 7 785 8 15 27 17 192 12 l184 -5 5 -775z m466 378 c-2 -222 -8
-427 -11 -455 -10 -77 9 -69 75 30 30 45 62 91 71 102 55 66 100 121 107 130
35 48 119 151 127 157 12 9 425 11 425 2 0 -4 -15 -23 -32 -44 -18 -21 -44
-52 -58 -70 -14 -19 -37 -47 -51 -64 -15 -17 -65 -78 -113 -136 -47 -58 -92
-112 -101 -121 -8 -9 -15 -24 -15 -34 0 -15 57 -119 82 -150 15 -17 92 -137
133 -205 22 -36 43 -69 48 -75 14 -17 77 -116 77 -122 0 -3 14 -23 31 -44 53
-67 47 -69 -183 -69 -112 0 -209 4 -216 9 -14 9 -21 19 -61 95 -14 25 -28 46
-32 46 -4 0 -11 10 -15 22 -3 12 -19 39 -35 61 -16 22 -29 46 -29 54 0 7 -3
13 -7 13 -5 0 -21 23 -36 50 -39 70 -59 68 -155 -15 -23 -19 -23 -24 -21 -175
l2 -155 -184 -2 c-101 -2 -188 0 -194 5 -7 4 -9 275 -7 785 l2 777 191 0 190
0 -5 -402z m-4779 307 c31 -8 73 -15 93 -15 19 0 44 -7 54 -15 11 -8 27 -15
35 -15 28 0 103 -43 146 -84 23 -22 57 -68 75 -101 31 -59 31 -63 32 -197 0
-110 -3 -141 -16 -160 -9 -12 -16 -29 -16 -36 0 -24 -88 -129 -140 -167 -44
-32 -49 -40 -43 -63 3 -15 19 -43 34 -63 16 -20 29 -40 29 -44 0 -4 14 -24 30
-45 17 -21 30 -41 30 -45 0 -4 14 -24 30 -45 17 -21 30 -41 30 -45 0 -4 14
-24 30 -45 17 -21 30 -41 30 -45 0 -3 20 -33 45 -65 25 -32 45 -62 45 -65 0
-4 13 -24 29 -44 15 -20 31 -46 35 -58 l7 -23 -234 0 c-215 0 -235 2 -241 18
-3 9 -15 31 -26 47 -11 17 -24 39 -30 50 -6 11 -19 34 -30 50 -11 17 -25 41
-30 55 -6 13 -14 27 -18 30 -4 3 -19 26 -32 53 -14 26 -28 47 -32 47 -5 0 -8
9 -8 19 0 11 -5 23 -11 26 -5 4 -15 17 -20 28 -46 102 -96 139 -142 105 -15
-12 -17 -43 -19 -268 l-3 -255 -202 -3 -203 -2 0 750 0 750 300 0 c233 0 312
-3 357 -15z m2952 -51 c-6 -16 -18 -56 -25 -89 -8 -33 -21 -85 -28 -115 -35
-136 -48 -188 -56 -232 -5 -26 -13 -56 -19 -67 -6 -11 -11 -28 -11 -39 0 -11
-6 -42 -14 -68 -8 -27 -19 -71 -26 -99 -6 -27 -17 -77 -26 -110 -8 -33 -19
-82 -25 -110 -5 -27 -13 -57 -16 -65 -8 -18 -30 -107 -44 -175 -5 -27 -14 -59
-19 -70 -4 -11 -11 -40 -15 -65 -3 -24 -10 -49 -14 -55 -5 -5 -11 -21 -13 -35
l-3 -25 -224 -3 c-156 -2 -228 1 -237 9 -8 6 -14 28 -14 48 0 20 -7 54 -15 76
-8 22 -14 56 -15 76 0 19 -4 39 -10 45 -5 5 -14 37 -20 69 -5 33 -16 92 -24
130 -9 39 -20 95 -27 125 -6 30 -15 70 -21 89 -6 19 -14 60 -19 90 -24 159
-34 201 -44 201 -10 0 -27 -66 -55 -215 -23 -125 -29 -156 -39 -188 -9 -31
-21 -86 -41 -190 -5 -26 -13 -62 -19 -80 -11 -36 -27 -112 -42 -202 -6 -34
-18 -66 -27 -73 -24 -18 -804 -5 -841 15 -15 7 -33 13 -41 13 -21 0 -82 32
-128 66 -47 35 -122 115 -122 130 0 6 -7 17 -15 24 -8 7 -15 21 -15 32 0 10
-6 29 -14 41 -20 32 -30 116 -30 247 -1 151 26 286 62 322 7 7 12 19 12 28 0
30 149 170 182 170 9 0 21 7 28 15 7 8 27 15 44 15 17 1 42 7 56 15 14 8 36
14 49 15 21 0 23 3 18 43 -6 43 -27 134 -46 197 -23 74 -31 70 168 70 132 0
181 -3 189 -13 6 -7 14 -37 18 -67 4 -30 11 -66 16 -80 6 -14 14 -47 18 -75
15 -92 29 -130 51 -145 47 -31 139 -129 156 -167 9 -21 20 -56 23 -78 3 -24
10 -40 18 -40 23 0 51 83 82 250 5 27 14 61 18 75 5 14 17 61 26 105 10 44 24
103 31 130 8 28 16 61 17 75 l3 25 187 3 187 2 6 -37 c3 -21 12 -61 20 -89 8
-28 15 -64 15 -80 0 -17 4 -34 9 -39 5 -6 14 -37 20 -70 12 -74 29 -149 43
-193 5 -19 14 -57 19 -85 13 -81 30 -159 41 -197 6 -19 15 -62 19 -95 13 -99
34 -190 43 -190 5 0 15 32 23 70 7 39 19 102 28 140 9 39 20 98 25 133 5 35
12 68 16 74 4 6 13 43 21 82 7 39 18 92 23 119 5 26 13 62 19 80 5 17 17 68
26 112 9 44 21 98 27 120 5 22 12 54 14 70 13 82 -7 74 192 77 197 3 210 0
191 -48z m546 -264 c22 -5 61 -14 87 -19 79 -17 168 -81 214 -153 59 -92 59
-96 59 -558 l0 -425 -130 0 -129 0 -36 72 c-19 40 -40 72 -46 72 -6 1 -22 -9
-36 -22 -49 -46 -115 -97 -125 -97 -5 0 -24 -7 -42 -16 -24 -12 -65 -16 -164
-17 -120 -1 -136 1 -179 22 -68 35 -110 73 -135 122 -80 163 -68 333 33 440
89 93 205 130 439 138 l160 6 3 37 c6 75 -60 138 -146 138 -55 0 -248 -53
-268 -73 -16 -16 -53 -6 -59 16 -4 12 -12 36 -20 52 -7 17 -21 48 -31 70 -9
22 -23 52 -31 68 -15 29 -11 47 11 47 8 0 27 7 42 15 16 8 38 15 50 15 11 0
24 4 30 10 5 5 41 14 79 21 39 6 88 14 110 19 56 11 212 11 260 0z m2152 -107
c-3 -10 -5 -2 -5 17 0 19 2 27 5 18 2 -10 2 -26 0 -35z m121 10 c0 -34 -1 -36
-10 -14 -5 14 -6 31 -4 38 9 23 14 14 14 -24z m-2326 -1223 c34 0 39 -3 33
-17 -4 -10 -11 -36 -14 -58 -4 -22 -13 -50 -19 -62 -7 -12 -12 -40 -12 -62 0
-34 3 -41 19 -41 10 0 21 6 24 13 3 8 26 20 51 27 48 13 90 4 126 -26 26 -22
44 -126 31 -178 -6 -25 -11 -60 -11 -79 0 -19 -7 -40 -15 -47 -8 -7 -15 -20
-15 -30 0 -10 -7 -23 -15 -30 -8 -7 -15 -17 -15 -23 0 -7 -19 -28 -42 -49 -67
-59 -174 -64 -230 -11 -30 29 -58 25 -58 -7 0 -17 -6 -20 -50 -20 -53 0 -58 4
-35 34 8 11 15 36 15 55 0 20 7 45 15 55 8 11 15 38 15 60 0 23 7 50 15 60 8
11 15 36 15 57 0 20 7 50 15 65 8 16 15 45 15 64 0 20 5 41 11 47 6 6 14 35
19 64 4 30 13 70 20 89 7 19 15 41 17 49 2 7 10 10 19 7 9 -3 34 -6 56 -6z
m1398 -39 c0 -50 -17 -63 -77 -59 -44 3 -48 5 -51 31 -5 44 22 67 80 67 l48 0
0 -39z m-3248 9 c324 0 338 -1 338 -19 0 -10 -7 -32 -15 -47 -8 -16 -15 -43
-15 -60 0 -18 -7 -45 -15 -60 -8 -16 -15 -43 -15 -60 0 -18 -7 -45 -15 -60 -8
-16 -15 -43 -15 -60 0 -18 -7 -45 -15 -60 -8 -16 -15 -43 -15 -60 0 -18 -7
-45 -15 -60 -8 -16 -15 -45 -15 -65 0 -20 -6 -41 -12 -47 -17 -13 -2499 -35
-2512 -22 -5 5 -4 29 3 57 7 26 19 75 27 108 9 33 22 85 29 115 7 30 21 84 30
120 9 36 23 92 31 125 9 33 22 84 31 114 l15 54 916 -6 c503 -4 1068 -7 1254
-7z m491 -42 c-3 -24 -12 -55 -19 -70 -8 -15 -14 -40 -14 -55 -1 -15 -7 -39
-15 -53 -8 -14 -14 -40 -15 -58 0 -18 -5 -43 -12 -55 -6 -12 -15 -42 -19 -67
-9 -52 -26 -122 -41 -165 -6 -16 -13 -47 -15 -67 -5 -38 -6 -38 -50 -38 -39 0
-44 2 -38 18 5 9 10 33 12 52 3 19 11 49 19 67 8 17 14 46 14 65 1 18 7 44 15
58 8 14 14 39 15 56 0 18 7 45 15 60 8 16 15 43 15 60 0 18 7 45 15 60 8 16
15 43 15 61 0 18 4 42 9 55 5 13 12 31 15 41 4 12 16 17 45 17 l39 0 -5 -42z
m119 9 c-2 -16 -10 -44 -18 -62 -8 -19 -14 -47 -14 -62 -1 -15 -7 -39 -15 -53
-8 -14 -15 -41 -15 -60 0 -19 -7 -46 -15 -60 -8 -14 -15 -41 -15 -60 0 -19 -7
-46 -15 -60 -8 -14 -15 -41 -15 -60 0 -19 -7 -46 -15 -60 -8 -14 -14 -42 -15
-62 0 -34 -3 -38 -25 -38 -22 0 -24 3 -19 33 3 17 12 49 20 70 8 20 14 49 14
63 0 14 5 35 12 47 6 12 15 42 19 67 9 52 26 122 41 165 6 17 13 46 15 65 3
19 11 49 19 67 8 17 14 45 14 63 0 27 3 31 23 28 18 -2 21 -8 19 -31z m93 1
c-7 -33 -25 -62 -25 -41 0 28 14 73 22 73 6 0 7 -14 3 -32z m327 14 c32 -10
71 -31 88 -47 28 -27 30 -33 30 -107 0 -65 -4 -85 -24 -116 -27 -43 -66 -79
-91 -84 -33 -6 -42 -35 -22 -69 9 -17 17 -38 17 -48 0 -9 7 -26 15 -37 8 -10
15 -28 15 -39 0 -11 7 -29 15 -39 8 -11 15 -30 15 -43 0 -22 -4 -23 -65 -23
-65 0 -65 0 -65 28 0 16 -7 37 -15 48 -8 10 -15 33 -15 50 0 16 -5 35 -11 41
-6 6 -14 26 -18 44 -4 22 -16 39 -34 49 -27 14 -29 14 -53 -13 -14 -17 -24
-41 -24 -60 -1 -18 -7 -43 -15 -57 -8 -14 -14 -43 -15 -66 0 -53 -13 -64 -77
-64 -51 0 -53 1 -53 28 1 15 7 38 15 52 8 14 15 39 15 55 0 17 7 41 15 55 8
14 15 41 15 60 0 19 7 46 15 60 8 14 15 41 15 60 0 19 7 46 15 60 8 14 15 41
15 60 0 19 7 46 15 60 8 14 14 43 15 66 0 22 3 44 7 47 14 15 188 7 245 -11z
m1853 -96 c-7 -50 -6 -54 17 -59 12 -4 39 -7 59 -7 l36 0 -11 -35 c-11 -35
-12 -35 -67 -35 -64 0 -84 -15 -92 -70 -6 -41 -24 -112 -39 -155 -21 -62 -21
-82 2 -105 18 -18 29 -21 61 -16 l39 6 0 -39 0 -40 -56 -7 c-63 -7 -143 1
-159 17 -16 16 -9 189 9 224 9 17 16 47 16 67 0 20 5 40 10 43 6 3 10 20 10
36 0 25 -5 30 -30 36 -16 3 -30 10 -30 16 0 19 43 57 65 57 18 0 65 47 65 65
0 4 8 17 18 30 12 17 27 24 50 25 l33 0 -6 -54z m-2215 -47 c-29 -112 -41
-158 -54 -214 -9 -33 -23 -89 -31 -125 -9 -36 -21 -89 -27 -117 -6 -29 -15
-53 -19 -53 -10 0 0 90 11 105 8 9 13 31 41 165 6 30 15 63 20 73 5 9 12 39
16 65 3 26 9 52 13 57 4 6 11 30 15 55 4 25 10 50 13 55 12 19 13 -22 2 -66z
m817 -11 c46 -12 83 -38 83 -57 0 -5 7 -14 15 -21 21 -17 21 -196 0 -224 -8
-11 -15 -32 -15 -48 0 -15 -5 -28 -10 -28 -6 0 -14 -8 -17 -17 -6 -16 -37 -48
-89 -92 -12 -11 -46 -15 -120 -15 -113 -1 -124 4 -170 76 -29 45 -33 138 -9
195 8 19 15 46 15 58 0 12 7 28 15 35 8 7 15 18 15 26 0 25 98 98 147 110 66
16 85 16 140 2z m992 0 c36 -8 60 -21 81 -44 30 -33 30 -35 30 -146 -1 -84 -4
-118 -15 -132 -8 -11 -15 -28 -15 -38 0 -10 -26 -44 -59 -77 -56 -56 -61 -59
-124 -65 -97 -11 -149 0 -185 37 -38 40 -66 109 -59 145 27 127 36 165 46 175
6 6 11 17 11 23 0 17 58 78 90 95 25 14 101 36 132 38 9 0 39 -4 67 -11z
m1086 -2 c44 -12 50 -16 47 -36 -2 -13 -11 -34 -19 -47 -14 -21 -17 -22 -33
-8 -10 9 -36 15 -67 15 -50 0 -53 -2 -101 -56 -34 -38 -52 -68 -56 -92 -3 -21
-8 -54 -12 -75 -12 -69 33 -126 99 -127 21 0 49 7 62 16 33 22 42 12 36 -38
l-6 -43 -55 -8 c-30 -5 -84 -6 -120 -3 -60 5 -68 8 -97 42 -33 37 -33 38 -33
138 1 73 5 106 15 120 8 11 15 28 15 38 0 25 77 126 101 133 10 4 19 11 19 16
0 5 12 9 28 10 15 0 36 4 47 9 29 12 73 11 130 -4z m365 2 c65 -11 70 -14 70
-38 0 -14 -9 -36 -19 -49 -18 -23 -20 -24 -36 -7 -14 13 -31 16 -83 14 -61 -3
-66 -5 -72 -28 -13 -46 10 -75 85 -109 11 -5 31 -21 45 -36 22 -23 25 -36 24
-94 0 -74 -16 -105 -68 -135 -35 -20 -153 -30 -226 -19 l-55 8 4 45 c4 55 6
58 29 37 14 -13 37 -17 90 -17 63 0 74 3 97 25 14 14 25 33 25 41 0 17 -55 74
-71 74 -6 0 -33 21 -60 47 -46 44 -49 49 -49 98 0 35 5 57 15 65 8 7 15 18 15
24 0 17 39 39 90 52 61 16 69 16 150 2z m-738 -7 c11 -1 -3 -91 -19 -121 -7
-14 -13 -41 -13 -60 0 -19 -7 -44 -15 -54 -8 -11 -15 -36 -15 -57 0 -20 -7
-50 -15 -65 -8 -16 -15 -44 -15 -62 0 -59 -14 -72 -75 -72 -50 0 -55 2 -55 23
1 12 7 33 15 47 8 14 15 41 15 60 0 19 7 46 15 60 8 14 15 41 15 60 0 19 7 46
15 60 8 14 14 39 15 57 0 18 6 47 14 65 8 18 17 40 19 49 5 14 17 16 99 10z"/>
<path d="M1693 3825 c-22 -15 -23 -22 -23 -154 0 -184 -2 -182 150 -155 42 8
100 50 100 73 0 9 7 25 15 35 20 27 19 85 -3 117 -26 39 -60 69 -78 69 -8 0
-23 4 -32 9 -37 19 -106 22 -129 6z"/>
<path d="M2875 3547 c-49 -34 -76 -84 -73 -131 l3 -41 90 0 c103 0 97 -8 71
100 -25 106 -33 112 -91 72z"/>
<path d="M2798 3139 c-20 -11 -24 -44 -8 -54 6 -3 10 -16 10 -29 0 -29 55 -86
109 -114 31 -17 59 -22 113 -22 l71 0 -7 58 c-4 31 -15 82 -26 112 l-19 55
-113 2 c-65 2 -120 -2 -130 -8z"/>
<path d="M3400 3126 c0 -39 19 -81 31 -69 17 17 7 87 -13 91 -13 3 -18 -3 -18
-22z"/>
<path d="M5241 3173 c-71 -9 -153 -91 -150 -150 1 -28 33 -77 60 -90 49 -26
131 -13 175 25 54 49 65 76 62 150 l-3 67 -55 1 c-30 1 -70 -1 -89 -3z"/>
<path d="M5352 2187 c-18 -18 -32 -36 -32 -41 0 -4 -7 -14 -15 -22 -8 -9 -15
-24 -15 -34 0 -10 -7 -31 -15 -46 -23 -45 -19 -100 11 -140 15 -19 35 -34 47
-34 26 0 97 48 97 65 0 7 7 18 15 25 8 7 15 22 15 34 0 11 7 30 15 40 9 12 15
42 15 79 0 48 -4 64 -22 83 -34 35 -77 32 -116 -9z"/>
<path d="M4397 2363 c-4 -3 -7 -16 -7 -28 0 -12 -7 -36 -16 -53 -22 -44 -16
-126 10 -130 25 -5 96 17 119 36 19 17 47 68 47 87 0 20 -26 65 -46 80 -19 15
-95 20 -107 8z"/>
<path d="M4854 2185 c-52 -50 -75 -105 -77 -192 -2 -63 1 -74 22 -97 14 -14
35 -26 48 -26 29 0 91 45 104 74 5 12 13 28 18 36 12 20 31 104 31 136 0 27
-26 85 -44 96 -26 18 -66 7 -102 -27z"/>
<path d="M5841 2179 c-22 -23 -41 -49 -41 -58 0 -9 -7 -25 -15 -35 -10 -13
-15 -44 -15 -95 0 -69 2 -77 27 -98 33 -29 58 -29 97 -2 32 22 76 81 76 102 0
7 7 30 15 52 21 59 18 96 -10 138 -37 53 -78 52 -134 -4z"/>
</g>
</svg>
