<svg viewBox="0 0 24 24" fill="none" xmlns="http://www.w3.org/2000/svg"><path d="M2 6a4 4 0 014-4h12a4 4 0 014 4v12a4 4 0 01-4 4H6a4 4 0 01-4-4V6z" fill="#007042"/><path d="M6.68 16.813c-.29-.186-.581.078-.835.203.1.125.204.246.311.364.126-.3.948-.05.524-.567zM10.736 16.401c-.212-.766-1.177-1.189-.964-2.11.157-.758.986-1.289.87-2.12a1.223 1.223 0 00-.05-.214c-.31-.897-.941-1.794-.565-2.84.104-.299.31-.554.492-.821-.6.33-.904 1.027-.891 1.737-.026.772.53 1.433.608 2.139a1.33 1.33 0 01-.209.886c-.393.549-.909 1.128-.672 1.85.224.729 1.11 1.17 1.055 2.017-.006.985-1.1 1.605-.833 2.69.168.054.338.104.51.148a.303.303 0 01-.024-.13c-.345-1.252 1.129-1.98.673-3.232zM17.344 16.737c-.092.1-.17.212-.163.355.218.037.418.131.6.262l.068.022c.108-.119.212-.241.313-.367l-.017-.01c-.249-.125-.492-.273-.801-.262zM16.87 17.615c-.085.125-.261.255-.2.392.11.048.23.112.314.194.146-.12.287-.245.424-.375l-.03-.025-.508-.186zM6.583 17.817c.135.128.274.252.418.37l.316-.199c-.037-.124-.134-.23-.218-.336-.208-.03-.346.106-.516.165zM6.46 16.197c.09.168.097.415.273.504.624-.013 1.067-.498 1.546-.878-.334-.51-.606-1.214-.31-1.83.239-.618.857-1.139.886-1.822a1.245 1.245 0 00-.084-.495c-.327-.866-.442-2.036.183-2.801-.34.093-.54.528-.656.858-.376.845.1 1.628.116 2.438.002.145-.01.292-.044.439-.322.666-.842 1.25-.927 2.017-.37.242-.674.666-1.202.523-.018.143.024.36.073.523-.418-.018-.704.299-1.056.448a.26.26 0 01-.058-.028c.096.16.198.318.305.471.295-.186.588-.442.954-.367zM15.269 16.531l-.036-.037c-.183.211-.122.548-.11.821.216.565.724 1.003.815 1.617.09-.053.18-.108.27-.165-.245-.778-1.005-1.33-.939-2.236z" fill="#F6F6F6"/><path d="M13.757 14.44c-.005-.69-.721-1.082-.872-1.718-.31-.268-.631.107-1 .037-.274.057-.694-.386-.857.094-.194.703-1.079 1.22-.69 2.054.37.74 1.26 1.283.963 2.242-.262.883-1.12 1.724-.622 2.738a7.851 7.851 0 002.664-.003c.404-.925-.252-1.84-.64-2.643-.48-1.17 1.03-1.73 1.054-2.8zM14.905 16.084c.359-.56.959-1.096.746-1.869-.218-.746-.99-1.207-.983-2.043v-.066c.176-.872.71-1.8.274-2.727-.122-.373-.394-.797-.764-.953.552.648.77 1.705.455 2.578-.16.347-.378.76-.4 1.168h-.002a.996.996 0 00.165.625c.419.697 1.146 1.464.728 2.373-.473.728-1.298 1.469-.838 2.428.327.56.826 1.118.72 1.8.163-.068.324-.142.482-.22-.026-1.112-1.642-1.963-.583-3.094z" fill="#F6F6F6"/><path d="M13.777 16.233c.461-.703 1.286-1.363.82-2.297-.28-.579-.856-.921-.838-1.644l.02-.121c.188-1.025.947-1.996.416-3.092a1.935 1.935 0 00-.728-.84l-.019.019c.619.616.808 1.63.474 2.446-.156.478-.497.954-.567 1.467-.033.242-.006.492.13.756.395.64 1.086 1.32.655 2.15-.454.684-1.213 1.349-.91 2.239.33.769 1.013 1.502.667 2.45.19-.048.377-.102.561-.163.33-1.296-1.422-2.066-.68-3.37zM9.844 17.056c.146-1.06-1.17-1.453-1.092-2.485-.005-.785.668-1.282.965-1.942.05-.16.068-.313.06-.458-.036-.73-.676-1.3-.57-2.121a2.635 2.635 0 01.618-1.587c-.527.217-.745.84-.89 1.364-.254.838.35 1.593.41 2.344.027.332-.052.661-.356.999-.437.528-.88 1.195-.565 1.905.334.785 1.384 1.395.928 2.372-.24.595-.803 1.051-.819 1.739.156.077.315.15.476.217-.153-.944.823-1.45.835-2.347zM6.132 15.075c.055-.156-.03-.3-.055-.448-.43-.196-1.042.598-1.373.507a8.3 8.3 0 00.26.54l-.016-.038c.413-.143.71-.567 1.184-.56zM6.224 12.236c-.788-.105-1.331.782-2.162.53.027.225.062.447.107.667.752.035 1.206-.655 1.928-.693.096-.13.108-.323.127-.504zM6.042 13.47c-.655-.068-1.078.615-1.729.56.05.183.108.363.17.54.586-.04.961-.598 1.542-.654l.017-.447zM6.041 11.49c.164-.051.419.036.492-.15-.006-.143.249-.31.037-.41-.94-.132-1.566 1.033-2.53.503l-.032-.065a8.355 8.355 0 00-.002.67c.743.281 1.398-.265 2.035-.549z" fill="#F6F6F6"/><path d="M8.753 16.514c-.054.193-.066.455-.108.672-.21.562-.66 1.013-.833 1.592.089.057.179.112.27.165.05-.896 1.272-1.472.671-2.43zM15.45 8.782c.614.335 1.117.896 1.493 1.493.26-.043.581-.006.855.037.618.168 1.238.86 1.893.411-.57-.97-1.419-1.868-1.183-3.137.025-.087-.03-.175-.108-.187-.37.155-.657.53-.803.896-.06.218-.096.45-.18.654-.444-.237-.917-.466-1.457-.41-.194.024-.473.037-.51.243zM17.67 15.691c-.006-.169.092-.36.054-.541-.49.15-.819-.318-1.182-.599-.01-.918-.952-1.52-1.002-2.38a1.31 1.31 0 01.092-.552c.31-.734.212-1.688-.127-2.373-.103-.18-.286-.322-.456-.429.25.542.553 1.182.402 1.849-.018.514-.313 1.008-.317 1.504-.001.177.035.354.134.533.395.729 1.105 1.42.838 2.334-.074.28-.292.498-.346.784.461.392.898.834 1.51.86.218-.144.097-.778.546-.485l.656.336.03.02c.098-.14.191-.283.28-.43l-.001-.001c-.383-.118-.674-.455-1.111-.43zM19.993 11.383c-.991.757-1.657-.732-2.668-.397.055.162.085.33.2.466.899-.006 1.517.959 2.457.579l.014-.008a7.6 7.6 0 00-.003-.64zM13.086 7.81c.686.113 1.316.4 1.928.635.025-.66.43-1.19.71-1.719-.448-.025-.825.237-1.237.355-.036-.36.23-.74.291-1.102-.667.044-1.195.456-1.747.785a360.96 360.96 0 01-.383-.953l.728-.71.019-.093-.983-.056c-.17-.305-.236-.672-.436-.952-.164.318-.274.654-.438.971l-.982.057v.074l.746.691c-.091.355-.176.741-.4 1.01-.437-.27-.868-.562-1.346-.748-.115-.038-.28-.1-.383-.019.151.342.363.71.328 1.085-.2-.038-.358-.17-.546-.225-.226-.064-.492-.187-.71-.112.363.523.66 1.07.763 1.699 1.208-.6 2.616-.928 4.078-.672zm-1.839-.897l.692-.542c.286.17.588.386.82.617l-.091.093c-.455-.05-.934.013-1.366.02-.048-.051-.145-.125-.055-.188zM13.082 9.358c-.024 0-.048.002-.071.003-.127.087-.497.025-.364.317.23-.187.553-.056.783.037.085-.043.066-.13.072-.206-.074-.14-.25-.154-.42-.15z" fill="#F6F6F6"/><path d="M13.448 8.744c-.17-.386-.558-.542-.91-.636a4.6 4.6 0 00-.63-.038c-.496.01-.971.141-1.261.562-.042.118-.225.285-.055.39.382-.024.819-.074 1.073.263 0 .3.188.698-.127.841-.261-.248-.57.106-.855-.093-.133-.082-.218.013-.273.132-.08.771.315 1.623 1.018 2.052.285.106.668.206.966.056.716-.341 1.012-1.126 1.146-1.848-.018-.138-.012-.405-.2-.412-.212.138-.521.056-.746 0-.133.044-.14.243-.29.281l-.092-.075c-.08-.342-.128-.828.182-1.065.346-.143.752-.206 1.11-.093.066-.118-.037-.211-.056-.317zm-.818 2.485c-.145.223-.363.503-.655.485-.328.025-.4-.25-.637-.412l-.018-.112c.437.069.916-.017 1.31.039zm-.293-.524a.228.228 0 01-.027.045c-.004.008-.299.14-.394.142-.078-.01-.319-.114-.35-.122-.038-.018-.027-.048-.005-.078.045-.053.114-.073.212-.084.056-.007.151.023.18.023.04 0 .117-.031.162-.025.1.012.17.039.223.1zM19.592 14.083a.403.403 0 01-.21-.053c-.503-.125-.868-.58-1.42-.58-.066.126-.024.3-.035.448.582.093 1 .599 1.582.692l-.004.019c.06-.166.114-.334.163-.505.006-.023-.034-.026-.076-.02zM19.92 12.78c-.827.236-1.372-.662-2.176-.526l.091.468c.746.025 1.212.76 1.983.728h.01l.005-.024c.042-.213.077-.428.104-.646l-.01-.001-.007.001zM19.28 15.172c-.018.042.017-.04 0 0zM17.889 14.608l-.09.43c.479.012.788.447 1.22.578a.117.117 0 00.035.023c.08-.153.154-.309.224-.467l-.042-.023c-.473-.117-.843-.554-1.347-.541zM19.055 15.64c-.017.032.017-.033 0 0z" fill="#F6F6F6"/><path d="M10.609 9.715c.188-.267.522-.056.728-.037v-.075c-.113-.183-.346-.274-.582-.265a.801.801 0 00-.163.023.145.145 0 00-.11.186c-.013.08.006.224.127.168zM5.059 10.816c.637-.26 1.243-.716 2.002-.56.224-.392.6-.772.91-1.083.188-.168.448-.274.582-.467-.631-.424-1.431-.025-2.02.206-.054-.567-.278-1.083-.746-1.457-.045-.023-.108-.071-.165-.075-.034-.003-.066.011-.09.056.211 1.338-.637 2.272-1.237 3.287.2.168.521.143.764.093z" fill="#F6F6F6"/></svg>
