<svg fill="none" xmlns="http://www.w3.org/2000/svg" viewBox="0 0 24 24"><path d="M2 6a4 4 0 014-4h12a4 4 0 014 4v12a4 4 0 01-4 4H6a4 4 0 01-4-4V6z" fill="#FFFC00"/><path d="M18.006 15.365c-2.168-1.066-2.513-2.711-2.528-2.833-.019-.148-.04-.264.12-.415.155-.145.842-.577 1.033-.712.315-.223.454-.447.352-.721-.072-.19-.246-.262-.43-.262a.785.785 0 00-.172.02c-.346.076-.682.252-.877.3a.303.303 0 01-.071.01c-.104 0-.143-.047-.133-.174.024-.384.076-1.134.016-1.835-.082-.964-.388-1.441-.751-1.864-.176-.204-.991-1.084-2.565-1.084-1.574 0-2.389.88-2.563 1.082-.364.422-.67.9-.751 1.864-.06.7-.006 1.45.016 1.834.007.121-.03.174-.133.174a.303.303 0 01-.072-.01c-.194-.047-.53-.224-.877-.3a.785.785 0 00-.172-.02c-.184 0-.357.073-.429.262-.102.275.036.498.352.722.19.135.878.566 1.033.712.16.15.14.267.12.414-.015.124-.36 1.77-2.528 2.833-.127.063-.343.195.038.408.598.336.996.3 1.305.502.263.172.108.542.299.676.234.165.928-.012 1.824.289.751.251 1.207.961 2.54.961 1.332 0 1.801-.713 2.54-.961.893-.3 1.588-.124 1.823-.289.191-.134.036-.504.299-.676.31-.202.707-.166 1.305-.502.38-.21.165-.343.037-.405z" fill="#fff"/><path d="M18.95 15.24c-.097-.27-.283-.413-.494-.532a1.251 1.251 0 00-.107-.057c-.063-.033-.127-.065-.191-.1-.658-.353-1.172-.8-1.528-1.33a3.032 3.032 0 01-.262-.472c-.03-.088-.03-.138-.007-.184a.296.296 0 01.084-.089l.308-.205c.141-.092.253-.166.325-.217.27-.192.459-.396.577-.624a1.256 1.256 0 00.06-1.03c-.179-.478-.623-.775-1.162-.775a1.578 1.578 0 00-.426.057c.005-.326-.002-.671-.031-1.011-.102-1.194-.513-1.82-.943-2.319a3.768 3.768 0 00-.958-.783A4.316 4.316 0 0012 5c-.805 0-1.54.192-2.192.57-.36.205-.685.47-.96.784-.43.499-.841 1.126-.943 2.318-.029.34-.036.687-.031 1.012a1.578 1.578 0 00-.426-.057c-.54 0-.984.296-1.163.774a1.26 1.26 0 00.06 1.032c.118.228.307.431.577.623.071.051.183.124.324.218l.297.197a.32.32 0 01.095.097c.023.047.023.099-.01.193a3.003 3.003 0 01-.258.462c-.349.518-.847.957-1.484 1.308-.337.181-.688.303-.836.711-.112.309-.039.66.245.955.104.11.225.203.358.275.276.154.57.274.875.355a.573.573 0 01.177.08c.103.093.088.231.226.434.07.104.157.195.259.267.289.203.614.215.958.229.31.012.663.026 1.065.16.167.056.34.164.541.29.482.302 1.141.713 2.245.713s1.768-.414 2.254-.715c.199-.125.371-.232.533-.286.402-.135.755-.149 1.066-.16.344-.014.668-.027.957-.23a.995.995 0 00.295-.327c.1-.17.097-.29.19-.373a.545.545 0 01.166-.078 3.86 3.86 0 00.887-.358 1.4 1.4 0 00.375-.299l.004-.004c.266-.29.333-.63.224-.93zm-.981.535c-.599.335-.996.3-1.306.502-.263.171-.107.542-.298.675-.235.165-.928-.011-1.824.29-.74.247-1.21.96-2.54.96s-1.79-.711-2.54-.963c-.895-.3-1.59-.124-1.825-.288-.19-.134-.036-.505-.298-.676-.31-.202-.708-.167-1.306-.5-.38-.214-.165-.346-.038-.409 2.168-1.065 2.514-2.71 2.53-2.832.018-.148.038-.264-.122-.415-.155-.145-.842-.577-1.032-.712-.316-.224-.455-.447-.352-.722.071-.19.246-.261.429-.261a.79.79 0 01.172.02c.346.076.682.252.877.3a.338.338 0 00.071.01c.104 0 .14-.054.133-.174-.022-.385-.076-1.134-.016-1.835.082-.964.388-1.441.751-1.864.175-.203.995-1.083 2.563-1.083 1.569 0 2.391.877 2.566 1.079.364.422.67.9.751 1.864.06.7.008 1.45-.016 1.834-.008.127.03.174.133.174a.294.294 0 00.072-.01c.194-.047.53-.224.877-.3a.785.785 0 01.172-.02c.184 0 .357.073.429.262.102.275-.036.498-.352.722-.19.135-.877.566-1.032.712-.161.15-.14.267-.121.414.015.124.36 1.77 2.529 2.833.128.065.344.197-.037.413z" fill="#000"/></svg>