<?xml version="1.0" standalone="no"?>
<!DOCTYPE svg PUBLIC "-//W3C//DTD SVG 20010904//EN"
 "http://www.w3.org/TR/2001/REC-SVG-20010904/DTD/svg10.dtd">
<svg version="1.0" xmlns="http://www.w3.org/2000/svg"
 width="225.000000pt" height="225.000000pt" viewBox="0 0 225.000000 225.000000"
 preserveAspectRatio="xMidYMid meet">
<metadata>
Created by potrace 1.10, written by Peter Selinger 2001-2011
</metadata>
<g transform="translate(0.000000,225.000000) scale(0.050000,-0.050000)"
fill="#0b5394" stroke="none">
<path d="M1681 3325 c-38 -85 -252 -537 -475 -1004 -223 -467 -406 -857 -406
-865 0 -9 129 -16 286 -16 l286 0 147 305 c80 168 164 348 186 400 55 129 42
143 248 -300 l182 -395 293 -6 c160 -3 292 0 292 6 0 6 -64 143 -143 305 -223
463 -417 868 -417 874 0 4 -69 149 -152 324 -84 174 -174 364 -199 422 -58
130 -46 134 -128 -50z m83 -260 c17 -19 60 -91 96 -160 36 -68 73 -119 82
-114 10 6 12 -3 5 -21 -13 -33 48 -190 74 -190 8 0 25 -27 39 -60 14 -33 33
-55 42 -49 10 6 18 -7 18 -29 0 -51 100 -282 122 -282 9 0 12 -13 5 -30 -6
-16 24 -100 68 -185 138 -272 137 -350 -5 -341 -48 3 -86 11 -85 16 6 28 -135
276 -146 258 -8 -12 -18 -4 -24 20 -6 23 -3 37 6 31 21 -13 -59 164 -107 238
-19 28 -34 62 -34 74 0 15 -20 19 -55 12 -30 -6 -43 -6 -29 0 40 17 -11 67
-70 67 -58 0 -136 -57 -136 -100 0 -16 -13 -30 -30 -30 -37 0 -143 -188 -132
-235 5 -19 0 -30 -9 -24 -10 6 -46 -46 -81 -115 -88 -177 -109 -196 -211 -196
-114 0 -113 22 6 274 51 108 91 218 90 244 -2 27 3 43 10 35 16 -16 100 118
159 257 99 227 182 407 242 515 34 63 54 115 44 115 -10 0 -18 9 -18 20 0 31
31 24 64 -15z"/>
<path d="M2630 3410 c-19 -44 -105 -227 -192 -407 l-157 -326 144 -307 c79
-169 149 -304 156 -299 7 4 24 43 39 88 37 114 31 123 239 -319 l188 -400 297
0 296 0 -87 175 c-80 159 -815 1706 -867 1825 l-22 50 -34 -80z m70 -491 c0
-12 10 -15 23 -7 14 8 18 5 10 -8 -21 -33 131 -329 153 -298 12 16 14 11 5
-14 -8 -25 54 -177 179 -443 199 -423 214 -469 153 -469 -62 0 -136 113 -251
380 -73 172 -135 249 -264 332 -125 80 -200 212 -180 315 26 127 172 308 172
212z"/>
</g>
</svg>
