<svg viewBox="0 0 24 24" fill="none" xmlns="http://www.w3.org/2000/svg"><path d="M2 6a4 4 0 014-4h12a4 4 0 014 4v12a4 4 0 01-4 4H6a4 4 0 01-4-4V6z" fill="#41ABE1"/><path fill-rule="evenodd" clip-rule="evenodd" d="M7.3 7.455c0-.256.174-.455.4-.455.2 0 .4.199.4.455v4.715c0 .256-.176.455-.4.455-.226 0-.4-.199-.4-.455V7.455zM5.55 8.676c-.225 0-.4.199-.4.455v2.159c0 .255.175.454.4.454.225 0 .4-.199.4-.454V9.13c-.025-.255-.2-.454-.4-.454zM3 10.352c0-.255.175-.454.4-.454.2 0 .375.199.4.454v.938c0 .255-.175.454-.4.454-.225 0-.4-.199-.4-.454v-.938zm13.351 5.085c0-.934.748-1.687 1.762-1.687 1.04 0 1.762.753 1.762 1.687 0 .935-.748 1.688-1.762 1.688s-1.762-.753-1.762-1.688zm.881 0a.86.86 0 00.88.857.86.86 0 00.882-.857.86.86 0 00-.881-.856.86.86 0 00-.881.856zm-13.107 0c0 1.039.827 1.688 1.788 1.688.353 0 .634-.07.755-.1l.02-.004v-.883c-.027.026-.32.182-.721.182-.56 0-.934-.39-.934-.857 0-.493.373-.856.934-.856.368 0 .623.131.704.173l.017.008v-.882a2.719 2.719 0 00-.775-.104c-1.04-.052-1.788.675-1.788 1.635zm10.57 1.688c-.96 0-1.788-.65-1.788-1.688 0-.96.774-1.687 1.788-1.635.4 0 .694.078.774.104v.882l-.017-.008a1.505 1.505 0 00-.703-.173c-.561 0-.935.363-.935.856 0 .468.374.857.935.857.4 0 .694-.156.72-.182v.883l-.02.005c-.12.03-.401.099-.754.099zm-6.86-3.323h.854v3.245h-.854v-3.245zm3.47 1.298l-.24-.078a1.926 1.926 0 00-.058-.021c-.135-.048-.315-.11-.315-.29 0-.156.187-.26.534-.26.225 0 .482.061.602.09.036.008.059.014.065.014v-.701a3.684 3.684 0 00-.828-.104c-.774 0-1.254.415-1.254 1.012 0 .545.4.805.854.96a.505.505 0 00.187.053c.214.052.374.156.374.311 0 .182-.187.312-.614.312-.374 0-.72-.104-.801-.13v.753c.014 0 .05.005.104.013.157.022.466.065.804.065.64 0 1.388-.286 1.388-1.09 0-.364-.267-.727-.801-.91zM9.85 8.676c-.225 0-.4.199-.4.455v2.159c0 .255.175.454.4.454.225 0 .4-.199.4-.454V9.13c0-.255-.175-.454-.4-.454zM12 9.926c.076 0 .15.028.226.085.1.057.175.199.15.398v.937c0 .142-.05.256-.15.341-.05.057-.125.086-.225.086-.225 0-.4-.2-.4-.455v-.938c0-.255.175-.454.4-.454zm2.15-1.25c-.225 0-.4.199-.4.455v2.159c0 .255.175.454.4.454.225 0 .4-.199.4-.454V9.13c0-.255-.175-.454-.4-.454zm1.75-1.221c0-.256.175-.455.4-.455.225 0 .4.199.4.455v4.715c0 .256-.175.455-.4.455-.225 0-.4-.199-.4-.455V7.455zm2.55 1.221c-.226 0-.4.199-.4.455v2.159c0 .255.174.454.4.454.224 0 .4-.199.4-.454V9.13c0-.255-.176-.454-.4-.454zm1.75 1.676c0-.255.175-.454.4-.454.225 0 .4.199.4.454v.938c0 .255-.175.454-.4.454-.225 0-.4-.199-.4-.454v-.938z" fill="#fff"/></svg>
