<svg viewBox="0 0 24 24" fill="none" xmlns="http://www.w3.org/2000/svg"><path d="M2 6a4 4 0 014-4h12a4 4 0 014 4v12a4 4 0 01-4 4H6a4 4 0 01-4-4V6z" fill="#F6F6F6"/><path d="M14.233 8.462H9.77v7.075h4.463V8.462z" fill="#FF5F00"/><path d="M10.229 12c0-.681.159-1.353.465-1.966A4.52 4.52 0 0112 8.464a4.758 4.758 0 00-4.89-.51 4.59 4.59 0 00-1.903 1.66 4.402 4.402 0 00-.706 2.387c0 .844.245 1.671.706 2.387a4.592 4.592 0 001.903 1.66 4.758 4.758 0 004.89-.51 4.518 4.518 0 01-1.305-1.57A4.383 4.383 0 0110.229 12z" fill="#EB001B"/><path d="M19.5 12c0 .845-.245 1.672-.707 2.387a4.59 4.59 0 01-1.903 1.66 4.757 4.757 0 01-4.89-.51c.551-.42.998-.958 1.304-1.57a4.39 4.39 0 000-3.934A4.527 4.527 0 0012 8.463a4.758 4.758 0 014.89-.51 4.59 4.59 0 011.904 1.659c.462.716.707 1.543.707 2.387V12z" fill="#F79E1B"/></svg>
