<svg viewBox="0 0 24 24" fill="none" xmlns="http://www.w3.org/2000/svg"><path d="M2 6a4 4 0 014-4h12a4 4 0 014 4v12a4 4 0 01-4 4H6a4 4 0 01-4-4V6z" fill="#008DE4"/><path fill-rule="evenodd" clip-rule="evenodd" d="M20.634 9.341c-.226-.186-1.072-.884-2.077-.638-1.326.332-2.147 2.033-2.434 2.958-1.312 4.2.925 3.742 1.163 3.693l.016-.003.861-2.819c.039-.138.068-.474-.368-.663h3c-.373.14-.581.361-.673.708l-.87 2.812a2.099 2.099 0 01-.008.005c-.203.104-2.26 1.161-4.124.216-1.773-.893-1.424-4.23-.031-5.862 2.203-2.576 5.293-1.596 5.868-1.414l.043.014-.314 1.035-.052-.042zM7.892 8.697c.367 0 1.382.05.724 2.012-.681 2.058-2.201 1.636-2.201 1.636l1.118-3.648h.36zm2.72 2.142c.855-2.158-.75-2.75-1.792-2.75H5.37c.287.205.239.475.186.635l-2.013 6.587c-.079.265-.384.532-.543.58h2.795c-.158-.031-.375-.256-.293-.559l.73-2.383s3.36.466 4.38-2.11zm1.128 4.04c-.11.07-.547.296-.955.335-.383.034-1.013-.114-1.013-.89 0-.671.71-1.15 1.087-1.323.17.644.51 1.376.881 1.878zm1.101-4.195c-.093.63-.883 1.264-1.078 1.345-.035-.352-.023-.911.263-1.364.198-.3.448-.431.65-.358.165.057.185.21.165.377zm0 5.208h1.886c-.602-.203-1.492-.785-1.85-1.198.29-.317.642-.72.708-1.54h-.977s.194.105.194.342c0 .219-.086.517-.251.729-.284-.434-.593-.929-.702-1.657.08-.04.168-.082.26-.125.345-.165.753-.36 1.087-.66.41-.367.501-.704.507-.931v-.03a.854.854 0 00-.256-.619c-.28-.287-.727-.4-1.194-.317-.38.075-.696.279-.85.43-.579.543-.65 1.447-.65 1.854 0 .066.003.128.006.174l.002.042a1.629 1.629 0 00-.093.037l-.141.05c-.48.17-1.414.5-1.771 1.34-.05.114-.122.374-.122.674 0 .252.05.537.21.801.284.445.753.722 1.512.71.824-.01 1.637-.588 1.778-.693.145.139.52.492.707.587z" fill="#fff"/></svg>
