<svg fill="none" xmlns="http://www.w3.org/2000/svg" viewBox="0 0 24 24"><path d="M2 6a4 4 0 014-4h12a4 4 0 014 4v12a4 4 0 01-4 4H6a4 4 0 01-4-4V6z" fill="#008DE4"/><path d="M20 12.005C20 14.76 16.417 17 12.005 17c-1.297 0-2.535-.198-3.613-.535l1.417-5.243h.689l-.784 2.317h1.018l.88-2.693H9.905l.533-1.983c.07-.258.34-.634.719-.634.219 0 .499.109.509.248-.29 0-.52.267-.52.565 0 .297.24.535.52.535.18 0 .598-.209.578-.664-.01-.278-.18-.843-1.088-.863-1.058-.02-1.786.912-2.046 1.854-.15.565-.538 1.903-.858 3.122l-.838 3.062C5.348 15.186 4 13.69 4 11.995 4 9.24 7.583 7 11.995 7 16.416 7.01 20 9.24 20 12.005zM5.973 13.529l.363-1.207c1.696.03 2.026-.387 2.265-1.437.17-.743-.243-1.193-.982-1.193H5.593l-.069.385h.449l-1.038 3.461h1.038v-.01zm1.075-3.452c.529-.02.626.133.466.798C7.244 11.995 6.975 12 6.476 12l.572-1.923zm12.503 1.274c0-.307-.23-.545-.51-.545-.229 0-.548.149-.767.515l.202-.475H17.09l-.137.385h.37l-.75 2.307h1.018l.454-1.384c.15-.437.429-.942.509-.872-.09.415.22.634.489.634.28-.01.509-.258.509-.565zm-4.694 1.034h1.707c.01-.04.012-.132.022-.182.19-.882-.268-1.357-.967-1.357-.759 0-1.458.168-1.757 1.357-.2.793.236 1.316.995 1.335.679.02 1.31-.056 1.63-.968h-1.039l-.052.116c-.158.468-.29.516-.47.516s-.26-.24-.2-.516l.13-.301h.001zm.182-.786c.08-.288.25-.526.47-.516.219 0 .269.228.2.516l-.113.401h-.669l.112-.401zm-1.515 1.555h-.868l1.52-2.308H12l-.19.385h.868l-1.44 2.307h2.156l.13-.384z" fill="#fff"/></svg>