<svg fill="none" xmlns="http://www.w3.org/2000/svg" viewBox="0 0 24 24"><path d="M2 6a4 4 0 014-4h12a4 4 0 014 4v12a4 4 0 01-4 4H6a4 4 0 01-4-4V6z" fill="#FFFC00"/><path fill-rule="evenodd" clip-rule="evenodd" d="M11.628 5.785c-.069-.06-.116-.028-.157-.042-.01-.038.042-.029.048-.063-.21-.03-.403-.154-.633-.077.127-.158.314-.06.478-.112-.084-.048-.176-.033-.242-.09a.74.74 0 01.58.02c.09.038.18.09.285.07.076-.013.146-.032.08-.133-.078-.123.044-.22.057-.358.16.178.378.262.502.445.028.04.063.052.111.049a.559.559 0 01.484.205.27.27 0 00.218.098c.128 0 .255.016.384 0 .112-.016.203.03.281.101.024.021.05.047.03.079-.021.032-.058.025-.087.011-.2-.097-.355.043-.533.09.163.051.322.096.457.192a.51.51 0 00.33.115.31.31 0 01.18.059c.119.077.234.162.37.258a.305.305 0 01-.229-.04c-.069-.036-.137-.088-.222-.073-.248.043-.474-.033-.704-.098-.055-.015-.137-.08-.167-.008-.025.055.076.074.126.096.123.053.23.122.307.229.056.078.14.092.23.1a.84.84 0 01.538.223c.038.037.084.073.046.136-.05-.014-.067-.057-.1-.084-.079-.063-.164-.115-.272-.089-.207.05-.397.035-.558-.114-.01-.01-.027-.013-.052-.008.08.107.163.222.292.272.126.05.254.089.367.165.024.016.06.019.09.027.028.007.073-.002.07.04-.004.033-.044.042-.076.047-.028.003-.06.011-.083.002-.226-.086-.482-.083-.69-.22-.062-.04-.135-.07-.215-.037-.019.008-.041.016-.041.037 0 .021.021.03.04.036.072.022.147.037.217.065.151.063.297.135.365.293.02.044.062.069.104.092a.38.38 0 01.162.147c.04.076.124.093.194.127.025.011.056.024.048.056-.01.036-.045.022-.071.022-.086.001-.17-.012-.231-.076a.465.465 0 00-.238-.123c-.186-.044-.348-.149-.54-.204-.003.092.064.14.121.186.058.046.127.08.19.119.126.078.235.167.279.314.032.109.125.16.239.184.066.015.175.021.161.098-.01.053-.125.048-.194.04a.635.635 0 01-.364-.183c-.137-.133-.332-.13-.507-.174-.023-.006-.053.008-.06.029-.008.026.02.039.042.046a.585.585 0 01.292.226.243.243 0 00.117.078.744.744 0 01.364.318c.033.051.055.11.111.147.017.01.033.026.016.046a.041.041 0 01-.053.01c-.027-.015-.06-.026-.08-.048-.156-.174-.397-.197-.604-.325.049.108.05.107.171.188.027.017.082.03.054.072-.018.027-.07.019-.1 0-.065-.038-.128-.077-.203-.096-.022-.005-.046-.006-.08-.01.015.078.07.112.129.125.194.042.369.118.52.243.03.025.08.034.122.044.033.008.065.014.062.054-.003.042-.043.043-.072.045a.6.6 0 01-.366-.083c-.13-.08-.266-.122-.423-.05.046.031.094.026.139.03.142.01.263.059.358.162.018.02.043.035.063.054.035.033.126.056.1.092-.04.056-.104-.01-.152-.032a.454.454 0 00-.256-.044c-.197.027-.39.025-.576-.059-.02-.009-.045-.018-.075.018.13.07.26.128.401.162a.657.657 0 01.333.19c.207.22.332.234.61.09.013-.007.028-.01.055-.017 0 .07-.043.1-.09.125a.6.6 0 01-.585.008c-.226-.113-.472-.155-.725-.217.042.077.113.096.176.108.223.041.367.192.526.324.037.03.043.07.013.124-.158-.108-.297-.258-.522-.23.014.052.06.044.09.054.12.04.21.114.268.216a.47.47 0 00.161.18c.02.011.05.02.03.048-.014.023-.041.021-.064.008-.05-.03-.104-.058-.15-.094-.169-.13-.344-.248-.572-.266-.06-.005-.11-.042-.16-.075-.126-.084-.15-.071-.174.076a.998.998 0 00.054.516c.149.414.422.753.751 1.045.168.148.381.252.555.398.45.377.843.792.98 1.37.018.07.058.083.121.077a1.24 1.24 0 00.742-.34c.283-.256.374-.584.38-.941a3.48 3.48 0 00-.156-1.091c-.128-.414-.15-.825.066-1.22.162-.297.424-.501.712-.68.027-.017.066-.04.086-.012.028.036-.02.057-.045.077a1.87 1.87 0 00-.506.657.936.936 0 00-.08.524c.042.017.059-.017.082-.034.256-.186.47-.422.631-.695.02-.033.04-.093.09-.072.048.02.039.079.029.124-.035.16-.11.3-.213.43-.102.126-.21.249-.28.396a.594.594 0 00-.045.412c.024.095.06.108.138.041.147-.127.267-.282.354-.456.021-.04.034-.085.055-.126.022-.043.027-.12.08-.113.059.008.053.086.054.136a.505.505 0 01-.137.357c-.3.336-.298.724-.226 1.123.052.287.082.572.013.86-.11.457-.4.761-.863.914-.084.028-.113.046-.072.138.08.184.133.373.026.57-.042.08-.022.173 0 .259.017.06.023.119.019.201a.591.591 0 01-.173-.423c.003-.142-.004-.283-.076-.411-.035-.061-.08-.168-.146-.138-.062.028.028.106.051.162.076.183.06.365.012.549a1.348 1.348 0 01-.337.583c-.12.128-.232.262-.205.456-.11-.07-.144-.18-.101-.3.04-.113.109-.211.169-.314.121-.209.222-.423.175-.671-.007-.034 0-.085-.059-.084a.078.078 0 00-.077.077c.004.204-.155.367-.155.572-.066-.082-.072-.176-.057-.27.02-.123.051-.245.075-.369a.497.497 0 00-.01-.292c-.016-.038-.044-.066-.09-.06-.044.008-.052.044-.055.08-.041.474-.328.812-.685 1.11a5.1 5.1 0 01-.543.377c-.31.194-.394.542-.185.835.103.145.105.298.106.457 0 .078-.06.12-.127.152a3.19 3.19 0 00-1.078.84c-.023.026-.053.052-.062.083a.371.371 0 01-.246.258c-.088.032-.107.1-.08.188.043.132.019.177-.121.225-.273.092-.551.075-.83.019-.075-.015-.081-.062-.057-.12.051-.13.155-.221.261-.307.073-.06.154-.109.234-.16a.421.421 0 00.18-.207c.036-.097.125-.146.204-.203.32-.235.646-.463.913-.757.164-.18.168-.208.04-.405-.239-.368-.43-.754-.501-1.186-.07-.423.022-.816.25-1.181.092-.148.189-.292.22-.464.013-.07.046-.184-.017-.197-.08-.016-.06.101-.082.16-.056.143-.137.273-.218.404-.359.579-.418 1.177-.134 1.8.051.11.114.224.098.348-.03.226-.114.27-.304.235-.2-.038-.395-.096-.595-.138a4.212 4.212 0 00-.855-.108c-.149 0-.296.003-.44.046a.385.385 0 01-.247-.004c-.157-.058-.217-.043-.295.096-.06.106-.144.134-.257.118a1.387 1.387 0 01-.528-.178c-.142-.086-.145-.161 0-.247a1.19 1.19 0 01.48-.165c.219-.024.438-.019.656-.067.176-.038.357.018.537.03.38.023.76.044 1.14.013.163-.013.257-.198.168-.332a5.496 5.496 0 01-.571-1.1 1.903 1.903 0 01-.126-.864c.014-.137.023-.139.144-.071.258.143.491.314.71.505.032.028.058.064.112.075.028-.058-.01-.1-.04-.14a1.11 1.11 0 00-.322-.271c-.566-.369-1.102-.77-1.568-1.253-.196-.203-.336-.444-.497-.67a.368.368 0 00-.248-.16.681.681 0 01-.422-.263c-.073-.094-.182-.149-.286-.203a3.49 3.49 0 01-.535-.323.409.409 0 00-.091-.055c-.056-.023-.115-.036-.171.002-.059.04-.04.093-.022.145.056.172.072.35.074.529.001.187.05.36.142.524a.406.406 0 01.06.229c-.006.11.046.174.16.207.213.063.26.129.269.338a.947.947 0 01-.052.383c-.074.197-.197.22-.337.063a2.01 2.01 0 01-.337-.55.795.795 0 00-.19-.3.232.232 0 01-.074-.14c-.078-.518-.162-1.036-.23-1.555-.05-.381.282-.668.679-.602.272.046.543.096.794.215.028.013.057.03.092.01-.011-.059-.066-.084-.107-.117a2.232 2.232 0 01-.518-.55.466.466 0 00-.089-.107c-.072-.06-.186-.051-.226.023-.12.223-.294.407-.47.589-.152.157-.277.326-.293.547a.044.044 0 01-.007.022c-.102.14-.116.277-.002.423.039.05-.005.112-.044.155-.152.167-.352.26-.572.316-.077.02-.088-.034-.089-.087a1.03 1.03 0 01.114-.508.612.612 0 00.081-.27.563.563 0 01.13-.303c.272-.378.458-.801.714-1.187.091-.138.177-.28.276-.414a.403.403 0 01.43-.16c.14.028.276.076.369.18.177.199.418.315.634.463.088.06.175.154.269.162.097.008.169-.111.257-.17a1.46 1.46 0 01.389-.199.45.45 0 00.254-.182c.15-.23.366-.402.552-.6.286-.305.447-.672.59-1.048.054-.138-.007-.192-.163-.17-.155.024-.301-.024-.449-.055-.11-.023-.218-.05-.328-.07a.642.642 0 00-.396.058c-.104.05-.213.069-.323.02-.034-.016-.08-.035-.072-.081.007-.04.05-.042.085-.051a5.27 5.27 0 00.24-.07c.026-.01.058-.025.047-.057-.012-.038-.047-.033-.08-.022a2.106 2.106 0 01-.395.092c-.077.01-.108-.016-.123-.086-.065-.297.162-.62.478-.661.25-.033.474-.136.7-.231.212-.09.39-.247.648-.292z" fill="#000"/><path fill-rule="evenodd" clip-rule="evenodd" d="M11.726 5.012c.085.11.167.204.225.315.015.028.027.058.002.084-.023.025-.051.013-.077.003-.048-.018-.096-.035-.142-.057-.095-.044-.15-.097-.06-.198.03-.03.031-.084.052-.147" fill="#030300"/><path fill-rule="evenodd" clip-rule="evenodd" d="M11.57 13.31a4.097 4.097 0 01-.57-.403 4.038 4.038 0 01-.753-.822c-.027-.04-.09-.098-.038-.136.037-.027.087.04.119.076.384.43.793.837 1.223 1.22.014.012.025.028.037.043l-.019.022z" fill="#FCFCFC"/><path fill-rule="evenodd" clip-rule="evenodd" d="M16.51 12.257c.071.086.074.187.09.283.08.492-.06.902-.507 1.194-.037.024-.087.076-.124.042-.043-.041.01-.09.042-.126.032-.034.065-.068.101-.098.298-.25.403-.574.398-.94-.002-.119 0-.237 0-.355z" fill="#FDFDFD"/><path fill-rule="evenodd" clip-rule="evenodd" d="M13.15 12.116c-.46-.266-.764-.636-.845-1.156a.262.262 0 01.002-.08c.004-.022.015-.044.044-.046.028-.002.045.014.053.038.005.014.01.03.011.044.035.402.273.703.55.982.068.069.144.13.216.195l-.032.023" fill="#FCFCFC"/><path fill-rule="evenodd" clip-rule="evenodd" d="M11.664 8.892c-.001-.048.035-.08.061-.116.195-.264.37-.538.461-.853.005-.015.012-.028.018-.042.01-.024.02-.06.049-.057.046.005.029.048.028.074a.896.896 0 01-.113.437 2.412 2.412 0 01-.43.529c-.018.017-.034.045-.074.028" fill="#FBFBFB"/><path fill-rule="evenodd" clip-rule="evenodd" d="M11.502 9.592c-.057.02-.095-.017-.139-.03-.213-.06-.428-.085-.646-.016-.028.01-.064.028-.08-.013-.012-.028.014-.047.037-.063.203-.143.646-.097.809.083.009.01.012.025.019.04z" fill="#FAFAFA"/><path fill-rule="evenodd" clip-rule="evenodd" d="M12.89 13.346c-.09-.13-.065-.224-.006-.315a.292.292 0 01.256-.139c.026 0 .051.007.06.029.011.023-.006.047-.027.056-.158.063-.242.184-.283.37z" fill="#F6F6F6"/><path fill-rule="evenodd" clip-rule="evenodd" d="M14.768 14.186a.99.99 0 01-.079.314c-.015.03-.032.071-.073.056-.052-.019-.029-.065-.015-.097a.535.535 0 00.031-.268c-.005-.059-.024-.144.06-.144.069 0 .077.082.076.139z" fill="#F7F7F7"/><path fill-rule="evenodd" clip-rule="evenodd" d="M11.79 6.105c.098.001.199.12.18.212-.014.065-.057.061-.094.026-.067-.063-.13-.115-.239-.092-.059.013-.044-.041-.025-.068.042-.057.105-.078.177-.078z" fill="#FBFBFB"/><path fill-rule="evenodd" clip-rule="evenodd" d="M13.037 17.302a2.085 2.085 0 01-.594.537c.165-.212.366-.394.594-.537z" fill="#F6F6F6"/><path fill-rule="evenodd" clip-rule="evenodd" d="M12.667 15.404c-.142-.134-.121-.483.014-.571.014-.01.031-.027.05-.012.017.013.017.034.007.052-.087.16-.081.335-.07.531z" fill="#F9F9F9"/><path fill-rule="evenodd" clip-rule="evenodd" d="M8.502 10.93c.176.062.354.13.503.25.015.013.028.032.015.05-.011.018-.035.018-.054.01a.954.954 0 01-.108-.046c-.125-.067-.235-.16-.376-.2-.02-.005-.05-.014-.035-.044.009-.02.03-.024.055-.02z" fill="#F5F5F5"/><path fill-rule="evenodd" clip-rule="evenodd" d="M7.608 9.96c-.01-.104.033-.159.066-.215.052-.085.107-.167.164-.25.014-.02.039-.043.07-.032.034.013.027.05.016.068-.088.143-.174.288-.316.429z" fill="#F4F4F4"/><path fill-rule="evenodd" clip-rule="evenodd" d="M10.701 6.365c.227-.073.442-.16.634-.293-.129.257-.38.28-.634.293" fill="#EDEDED"/><path fill-rule="evenodd" clip-rule="evenodd" d="M7.912 11.857c-.128-.113-.208-.448-.15-.562.008-.014.018-.028.034-.023.012.003.03.019.03.028-.01.184.05.359.086.557z" fill="#F8F8F8"/><path fill-rule="evenodd" clip-rule="evenodd" d="M9.384 10.483c.105-.187.156-.409.373-.524l.028.017-.376.523-.025-.016zm2.636-3.705c-.133.12-.182.362-.479.27.182-.077.328-.177.479-.27z" fill="#F1F1F1"/><path fill-rule="evenodd" clip-rule="evenodd" d="M10.158 6.712c0 .03-.023.032-.045.042-.035.015-.066.038-.098.057-.025.015-.038.065-.07.045-.039-.022-.02-.066-.005-.1.02-.047.033-.102.09-.123.056-.02.132.03.128.08z" fill="#F5F5F5"/><path fill-rule="evenodd" clip-rule="evenodd" d="M8.679 9.703a.45.45 0 01.226.244c.005.011 0 .033-.009.039-.01.007-.035.008-.042 0-.07-.078-.168-.143-.175-.283" fill="#EFEFEF"/><path fill-rule="evenodd" clip-rule="evenodd" d="M11.485 18.672c-.003.024-.017.034-.038.038-.032.006-.061.015-.063.053-.002.06-.042.074-.086.054-.056-.025-.019-.063 0-.093a.265.265 0 01.095-.097c.053-.027.079 0 .091.045" fill="#F3F3F3"/><path fill-rule="evenodd" clip-rule="evenodd" d="M12.065 7.126a.993.993 0 00.25-.194c-.024.156-.069.19-.25.194z" fill="#E2E2E2"/></svg>