<svg viewBox="0 0 24 24" fill="none" xmlns="http://www.w3.org/2000/svg"><path d="M2 6a4 4 0 014-4h12a4 4 0 014 4v12a4 4 0 01-4 4H6a4 4 0 01-4-4V6z" fill="#81BC06"/><path d="M5.635 11.305S7.08 9.289 9.97 9.08V8.35C6.77 8.592 4 11.151 4 11.151s1.57 4.284 5.97 4.677v-.778c-3.23-.383-4.335-3.745-4.335-3.745zm4.335 2.2v.711c-2.44-.41-3.118-2.807-3.118-2.807s1.171-1.226 3.118-1.425v.781h-.004c-1.021-.116-1.82.785-1.82.785s.448 1.518 1.824 1.954zM9.97 7v1.349c.094-.007.188-.013.282-.016 3.637-.115 6.007 2.818 6.007 2.818s-2.722 3.126-5.558 3.126c-.26 0-.503-.023-.731-.06v.833c.195.024.398.038.61.038 2.638 0 4.546-1.273 6.394-2.78.307.232 1.561.796 1.819 1.043-1.757 1.389-5.852 2.509-8.173 2.509-.224 0-.439-.013-.65-.032V17H20V7H9.97zm0 2.984V9.08c.093-.006.186-.01.282-.013 2.616-.078 4.332 2.123 4.332 2.123s-1.854 2.431-3.841 2.431c-.286 0-.543-.043-.773-.117v-2.739c1.018.116 1.223.541 1.835 1.505l1.362-1.084s-.994-1.231-2.67-1.231c-.182 0-.356.012-.527.029z" fill="#fff"/></svg>
