<svg fill="none" xmlns="http://www.w3.org/2000/svg" viewBox="0 0 24 24"><path d="M2 6a4 4 0 014-4h12a4 4 0 014 4v12a4 4 0 01-4 4H6a4 4 0 01-4-4V6z" fill="#F6F6F6"/><path d="M14.951 12.768a3.58 3.58 0 00-.187-.303.389.389 0 00-.518-.132c-.174.084-.338.087-.496-.056a3.725 3.725 0 00-.557-.436c-.124-.076-.25-.166-.423-.084.039-.197.054-.37.023-.548a2.976 2.976 0 00-.26-.817.563.563 0 01-.018-.511.25.25 0 00.018-.203c-.088-.233-.08-.472-.073-.716.008-.208.06-.348.265-.379.042-.006.081-.034.12-.053.117-.054.166-.152.164-.29a.683.683 0 00-.133-.36c-.057-.092-.13-.179-.13-.297.003-.112-.05-.191-.106-.278-.203-.3-.494-.385-.817-.405a5.27 5.27 0 01-.2-.053c-.06-.017-.135-.011-.15-.104-.017-.087.004-.16.077-.202.063-.037.057-.079.026-.138-.05-.092-.09-.19-.143-.28-.034-.062-.026-.099.034-.133.099-.056.2-.112.294-.174.79-.528 1.55-1.104 2.26-1.752.098-.09.21-.163.285-.281.04-.065.073-.028.099.011.057.081.112.166.159.256.041.078.088.106.169.064.075-.036.101-.081.07-.174a2.714 2.714 0 00-.38-.758.568.568 0 00-.161-.16c-.073-.045-.133-.015-.187.042-.052.056-.029.106.008.163.044.07.078.146.124.213.052.076.034.13-.03.185-.279.236-.56.472-.83.717-.598.545-1.29.938-1.922 1.424-.08.062-.166.087-.268.047a.594.594 0 00-.187-.042c-.05-.014-.099-.014-.14.014-.182.048-.32.208-.372.45-.034.146-.127.267-.161.41a.402.402 0 01-.213.275 1.76 1.76 0 00-.44.368c-.062.07-.086.115-.005.188a.26.26 0 01.091.166.46.46 0 00.25.37c.124.065.09.127.036.211a.207.207 0 01-.153.093c-.2.031-.305.149-.312.37-.016.388-.188.689-.422.964-.085.101-.156.22-.12.365.037.144.193.276.323.287.198.017.208.025.245.242.01.058.018.12.026.18.08.606.132 1.213.226 1.816.041.273.057.545-.018.818a1.53 1.53 0 00-.037.556c.04.39.102.775.208 1.152a.382.382 0 01-.05.331l-.244.38c-.184.3-.338.617-.382.982-.031.259-.039.523-.093.778-.12.543-.115 1.073.109 1.587.02.045.036.096.044.146a.554.554 0 00.153.301c.13.143.276.27.38.44.042.071.115.06.177.046.05-.011.067-.056.067-.107 0-.182.042-.382-.013-.54-.041-.12-.239-.12-.36-.187-.004-.003-.009-.003-.014-.006-.062-.017-.088-.056-.088-.13 0-.387-.008-.774-.01-1.162 0-.126.002-.253.046-.374a.866.866 0 00.057-.37.672.672 0 01.354-.677c.273-.16.512-.363.725-.601.034-.037.065-.048.115-.031.127.047.255.087.384.126.053.017.081.042.07.11-.077.483-.142.963-.264 1.438-.115.446-.112.921.137 1.337a.452.452 0 01.037.407c-.068.21-.185.402-.237.62-.052.217-.13.425-.22.627-.045.101-.09.202-.1.318-.01.129.021.162.138.137.135-.028.265-.081.398-.126.125-.042.159-.13.135-.259a.324.324 0 01.005-.18c.094-.247.122-.513.21-.76.076-.214.167-.391.378-.484.138-.061.185-.36.073-.46-.091-.082-.078-.144-.029-.23.029-.051.047-.113.08-.16.136-.194.198-.383.139-.65-.081-.365-.026-.752.005-1.129.023-.272.125-.51.247-.744.018-.034.031-.093.075-.084.05.01.044.073.044.115a1.53 1.53 0 01-.122.595c-.052.13-.026.172.102.208.072.02.135.003.195-.045.132-.107.239-.241.322-.396.029-.053.05-.115.122-.157.005.056.01.101.01.146-.005.45-.062.896-.153 1.331-.093.45-.242.885-.304 1.343-.055.402-.08.806-.263 1.174-.049.098.024.185.128.18.286-.014.457-.169.455-.478 0-.227.05-.424.13-.629.135-.345.13-.73.236-1.087.04-.13.06-.27.149-.368.093-.104.101-.219.08-.348-.01-.07-.013-.14-.034-.208-.026-.09-.002-.16.042-.236a5.16 5.16 0 00.364-.772c.039-.102.047-.197-.013-.293a.264.264 0 01-.02-.241c.028-.082.054-.168.085-.247.159-.396.307-.792.28-1.239-.025-.41-.067-.814-.262-1.18-.026-.047-.07-.123-.015-.162.057-.045.137-.057.202.008l.097.093c.06.061.114.126.18.182.077.068.228.056.295-.02.091-.078.042-.157.003-.227zm-4.917-.46c-.109-.515-.114-1.04-.192-1.565.12.093.21.213.234.368.062.401.05.8-.042 1.196zm-.174-1.975c-.036-.096.062-.07.101-.093.055-.028.102-.025.107.062.008.115.003.233.047.382a.802.802 0 01-.255-.351zm.619-4.118l-.008.017c0-.006.003-.011.008-.017zm.263 1.382a.735.735 0 00-.167.326c-.015.084-.06.104-.13.05-.242-.188-.312-.455-.312-.758a.1.1 0 01.04-.084c.114-.09.223-.186.311-.332.026.34.182.576.398.615l-.14.183z" fill="#1B263A"/></svg>